<?xml version="1.0" encoding="UTF-8" standalone="no"?>
<svg
   xmlns:dc="http://purl.org/dc/elements/1.1/"
   xmlns:cc="http://creativecommons.org/ns#"
   xmlns:rdf="http://www.w3.org/1999/02/22-rdf-syntax-ns#"
   xmlns:svg="http://www.w3.org/2000/svg"
   xmlns="http://www.w3.org/2000/svg"
   xmlns:sodipodi="http://sodipodi.sourceforge.net/DTD/sodipodi-0.dtd"
   xmlns:inkscape="http://www.inkscape.org/namespaces/inkscape"
   version="1.1"
   id="svg2"
   xml:space="preserve"
   width="4666.6665"
   height="2666.6667"
   viewBox="0 0 4666.6665 2666.6667"
   sodipodi:docname="4565.eps"><metadata
     id="metadata8"><rdf:RDF><cc:Work
         rdf:about=""><dc:format>image/svg+xml</dc:format><dc:type
           rdf:resource="http://purl.org/dc/dcmitype/StillImage" /></cc:Work></rdf:RDF></metadata><defs
     id="defs6" /><sodipodi:namedview
     pagecolor="#ffffff"
     bordercolor="#666666"
     borderopacity="1"
     objecttolerance="10"
     gridtolerance="10"
     guidetolerance="10"
     inkscape:pageopacity="0"
     inkscape:pageshadow="2"
     inkscape:window-width="640"
     inkscape:window-height="480"
     id="namedview4" /><g
     id="g10"
     inkscape:groupmode="layer"
     inkscape:label="ink_ext_XXXXXX"
     transform="matrix(1.3333333,0,0,-1.3333333,0,2666.6667)"><g
       id="g12"
       transform="scale(0.1)"><path
         d="M 0,0 H 35000 V 20000 H 0 Z"
         style="fill:#ffffff;fill-opacity:1;fill-rule:nonzero;stroke:none"
         id="path14" /><path
         d="m 6702.25,17152.1 c 4154.75,1542.4 8377.45,178.8 11241.35,-2791.3 1432.4,-1485.5 3651.9,-972.2 5911.7,-459 2258.4,513 4557,1025.9 6150.3,-456.2 C 32181,11422 31184.6,6219.2 28201.7,3965.8 24147.4,902.801 11817.5,2457 9150.37,2978.2 c -3072.77,600.6 -5319.2,2422.6 -6231.92,4634 -2199.204,5328.4 1947.74,8858.3 3783.8,9539.9"
         style="fill:#e7f3fe;fill-opacity:1;fill-rule:nonzero;stroke:none"
         id="path16" /><path
         d="m 17514.1,14054.5 c -738.8,0 -1337.7,598.9 -1337.7,1337.7 0,738.8 598.9,1337.8 1337.7,1337.8 738.9,0 1337.8,-599 1337.8,-1337.8 0,-738.8 -598.9,-1337.7 -1337.8,-1337.7 m 3389.2,954.8 c 14.1,125.7 21.6,253.4 21.6,382.9 0,68.3 -2.3,136.1 -6.3,203.5 l -632.7,204.7 c -39,266.8 -115.5,521.3 -224.1,758.1 l 419.6,516.3 c -97,170.8 -208.3,332.4 -332.3,483.2 l -632.9,-206.5 c -184.5,188.4 -395.2,350.9 -626.5,481.5 l 36,664.9 c -176.6,80.4 -361.2,146.2 -552.4,195.8 l -390.8,-539.3 c -152.3,25.7 -308.7,39.2 -468.4,39.2 -108.7,0 -216,-6.4 -321.6,-18.5 l -361.8,559.3 c -193.9,-39.5 -381.7,-95.3 -562.1,-166.1 l 0.8,-665.9 c -238.2,-118.4 -457.2,-269.6 -651.1,-447.9 l -620.8,239.6 c -132,-144.2 -251.7,-299.6 -357.6,-464.9 l 391.8,-537.9 c -121.2,-231.2 -211.2,-481.5 -264.1,-745.1 l -642.6,-171 c -14.1,-125.8 -21.6,-253.5 -21.6,-383 0,-68.3 2.3,-136.1 6.2,-203.4 l 632.8,-204.8 c 39,-266.7 115.5,-521.3 224.1,-758.1 l -419.6,-516.3 c 97,-170.8 208.3,-332.4 332.3,-483.2 l 632.9,206.5 c 184.5,-188.4 395.2,-350.9 626.5,-481.5 l -36,-664.9 c 176.6,-80.4 361.2,-146.2 552.4,-195.8 l 390.8,539.3 c 152.3,-25.7 308.7,-39.2 468.3,-39.2 108.9,0 216.1,6.4 321.7,18.5 l 361.8,-559.3 c 193.9,39.5 381.7,95.3 562.1,166.1 l -0.8,665.9 c 238.2,118.4 457.3,269.6 651.1,447.9 l 620.8,-239.6 c 132,144.2 251.7,299.6 357.6,464.9 l -391.8,537.9 c 121.2,231.2 211.2,481.5 264.1,745.2 l 642.6,171"
         style="fill:#9ec8ff;fill-opacity:1;fill-rule:nonzero;stroke:none"
         id="path18" /><path
         d="m 19338.7,13866.5 c -11.3,0 -22.6,3.8 -31.9,11.6 -21.3,17.6 -24.2,49.1 -6.5,70.4 336.2,404.2 521.4,917 521.4,1443.7 0,252.2 -41.3,499.9 -122.6,736.1 -9,26.1 4.8,54.6 30.9,63.6 26.2,9 54.6,-4.9 63.6,-31 85,-246.7 128.1,-505.4 128.1,-768.7 0,-550 -193.4,-1085.5 -544.5,-1507.7 -9.9,-11.9 -24.1,-18 -38.5,-18"
         style="fill:#ffffff;fill-opacity:1;fill-rule:nonzero;stroke:none"
         id="path20" /><path
         d="m 19145,17023.9 c -12.3,0 -24.6,4.5 -34.2,13.6 -226,212.7 -487.7,374 -777.9,479.3 -25.9,9.4 -39.3,38.1 -29.9,64 9.4,26 38.1,39.4 64.1,30 303,-110 576.3,-278.4 812.2,-500.5 20.1,-18.9 21.1,-50.5 2.2,-70.7 -9.9,-10.4 -23.2,-15.7 -36.5,-15.7"
         style="fill:#ffffff;fill-opacity:1;fill-rule:nonzero;stroke:none"
         id="path22" /><path
         d="m 16995.3,17581.5 c -22.4,0 -42.8,15.1 -48.5,37.7 -6.7,26.8 9.5,54 36.3,60.8 188.3,47.5 383.2,71.6 579.2,71.6 27.6,0 50,-22.4 50,-50 0,-27.6 -22.4,-50 -50,-50 -187.8,0 -374.4,-23.1 -554.8,-68.6 -4.1,-1 -8.2,-1.5 -12.2,-1.5"
         style="fill:#ffffff;fill-opacity:1;fill-rule:nonzero;stroke:none"
         id="path24" /><path
         d="m 7803.93,5877.5 c -511.74,0 -926.59,414.9 -926.59,926.6 0,511.8 414.85,926.6 926.59,926.6 511.74,0 926.59,-414.8 926.59,-926.6 0,-511.7 -414.85,-926.6 -926.59,-926.6 m 2347.47,661.4 c 9.8,87.1 14.9,175.5 14.9,265.2 0,47.3 -1.5,94.3 -4.3,140.9 l -438.25,141.8 c -26.98,184.8 -79.97,361.1 -155.19,525.2 l 290.62,357.6 c -67.22,118.3 -144.29,230.2 -230.21,334.6 l -438.34,-143 c -127.76,130.5 -273.76,243.1 -433.93,333.5 l 24.93,460.6 c -122.32,55.7 -250.22,101.2 -382.64,135.6 l -270.67,-373.5 c -105.5,17.7 -213.84,27.1 -324.39,27.1 -75.36,0 -149.68,-4.4 -222.8,-12.8 l -250.59,387.4 C 7196.28,9091.7 7066.15,9053 6941.22,9004 l 0.57,-461.2 c -165.03,-82 -316.74,-186.8 -450.99,-310.2 l -430.03,165.9 c -91.38,-99.9 -174.34,-207.5 -247.65,-322 L 6084.5,7704 c -83.99,-160.2 -146.32,-333.5 -182.95,-516.2 l -445.11,-118.4 c -9.74,-87.1 -14.92,-175.6 -14.92,-265.3 0,-47.3 1.56,-94.3 4.31,-140.9 l 438.28,-141.8 c 26.97,-184.8 79.96,-361.1 155.19,-525.1 l -290.62,-357.6 c 67.22,-118.3 144.29,-230.3 230.21,-334.7 l 438.34,143.1 c 127.76,-130.6 273.76,-243.1 433.92,-333.6 L 6826.23,4653 c 122.32,-55.7 250.22,-101.3 382.64,-135.6 l 270.67,373.5 c 105.5,-17.8 213.84,-27.2 324.39,-27.2 75.36,0 149.67,4.5 222.8,12.8 l 250.59,-387.3 c 134.26,27.3 264.39,66 389.32,115 l -0.57,461.3 c 165.03,82 316.74,186.7 450.99,310.2 l 430.02,-165.9 c 91.39,99.8 174.34,207.5 247.66,321.9 l -271.39,372.6 c 84.01,160.2 146.33,333.5 182.96,516.1 l 445.09,118.5"
         style="fill:#9ec8ff;fill-opacity:1;fill-rule:nonzero;stroke:none"
         id="path26" /><path
         d="m 9067.69,5732 c -11.27,0 -22.6,3.8 -31.95,11.5 -21.23,17.7 -24.13,49.2 -6.47,70.5 230.58,277.2 357.58,628.9 357.58,990.1 0,173 -28.3,342.9 -84.1,504.9 -8.99,26.1 4.89,54.6 31,63.5 26.09,9 54.56,-4.8 63.55,-30.9 59.42,-172.6 89.55,-353.4 89.55,-537.5 0,-384.5 -135.2,-758.9 -380.69,-1054.1 -9.89,-11.9 -24.13,-18 -38.47,-18"
         style="fill:#ffffff;fill-opacity:1;fill-rule:nonzero;stroke:none"
         id="path28" /><path
         d="m 8933.54,7918.9 c -12.29,0 -24.6,4.5 -34.26,13.6 -154.96,145.9 -334.45,256.5 -533.46,328.7 -25.96,9.5 -39.36,38.1 -29.95,64.1 9.41,26 38.12,39.4 64.05,29.9 211.91,-76.8 402.97,-194.6 567.91,-349.8 20.11,-19 21.06,-50.6 2.13,-70.7 -9.84,-10.5 -23.11,-15.8 -36.42,-15.8"
         style="fill:#ffffff;fill-opacity:1;fill-rule:nonzero;stroke:none"
         id="path30" /><path
         d="m 7444.51,8305.1 c -22.35,0 -42.71,15.1 -48.44,37.8 -6.75,26.8 9.47,54 36.24,60.7 131.65,33.2 267.9,50.1 404.96,50.1 27.61,0 50,-22.4 50,-50 0,-27.6 -22.39,-50 -50,-50 -128.81,0 -256.83,-15.8 -380.48,-47 -4.1,-1.1 -8.23,-1.6 -12.28,-1.6"
         style="fill:#ffffff;fill-opacity:1;fill-rule:nonzero;stroke:none"
         id="path32" /><path
         d="m 21527.1,11843.3 c -326.4,0 -591.1,264.6 -591.1,591.1 0,326.4 264.7,591 591.1,591 326.5,0 591.1,-264.6 591.1,-591 0,-326.5 -264.6,-591.1 -591.1,-591.1 z m 1418.7,618.3 c 0,25.8 -0.7,51.5 -2.1,77 l 328.4,263.7 c -25.8,131.6 -66.1,257.9 -119.3,377.2 l -424,32.1 c -96.4,152.1 -221.3,284.4 -367.1,389.4 l -1.4,422.6 c -118.1,61.9 -244,111 -375.9,145 l -289.8,-311.9 c -50,5.4 -100.7,8.3 -152.1,8.3 -127.7,0 -251.4,-17.2 -369,-49.1 l -332.3,263.1 c -125.4,-54.4 -243.2,-123 -351.5,-203.8 l 62.9,-418.9 c -123.9,-123.3 -224.8,-269.6 -296,-431.9 l -413.4,-95.9 c -34.9,-127.6 -55.9,-261 -61.1,-398.5 l 364.1,-210.5 c 18.6,-184.4 72.9,-358.2 155.8,-514.5 l -182.3,-381.8 c 78.2,-106.9 168.1,-204.8 267.9,-291.5 l 390.4,152.9 c 153.5,-99.9 327.7,-170.6 514.8,-204.2 l 184,-378.9 c 21.9,-0.8 43.9,-1.4 66.1,-1.4 110.2,0 218.1,10.3 322.8,29.7 l 124.1,401.3 c 180.7,60.7 345,157.3 484.4,281.2 l 410.4,-92.2 c 84.2,98.8 157.6,207 218.6,322.8 l -237.9,349.4 c 52.1,146.7 80.5,304.7 80.5,469.3"
         style="fill:#9ec8ff;fill-opacity:1;fill-rule:nonzero;stroke:none"
         id="path34" /><path
         d="m 28409.7,15866.8 h -508 c -196.2,0 -355.8,159.6 -355.8,355.8 v 508 c 0,196.1 159.6,355.7 355.8,355.7 h 508 c 196.2,0 355.8,-159.6 355.8,-355.7 v -508 c 0,-196.2 -159.6,-355.8 -355.8,-355.8 m -508,1079.5 c -119,0 -215.8,-96.8 -215.8,-215.7 v -508 c 0,-119 96.8,-215.8 215.8,-215.8 h 508 c 119,0 215.8,96.8 215.8,215.8 v 508 c 0,118.9 -96.8,215.7 -215.8,215.7 h -508"
         style="fill:#b1d3ff;fill-opacity:1;fill-rule:nonzero;stroke:none"
         id="path36" /><path
         d="m 26019.4,15866.8 h -508.1 c -196.1,0 -355.7,159.6 -355.7,355.8 v 508 c 0,196.1 159.6,355.7 355.7,355.7 h 508.1 c 196.1,0 355.7,-159.6 355.7,-355.7 v -508 c 0,-196.2 -159.6,-355.8 -355.7,-355.8 m -508.1,1079.5 c -118.9,0 -215.7,-96.8 -215.7,-215.7 v -508 c 0,-119 96.8,-215.8 215.7,-215.8 h 508.1 c 118.9,0 215.7,96.8 215.7,215.8 v 508 c 0,118.9 -96.8,215.7 -215.7,215.7 h -508.1"
         style="fill:#b1d3ff;fill-opacity:1;fill-rule:nonzero;stroke:none"
         id="path38" /><path
         d="m 25797.1,16162.6 c -1,0 -1.9,0 -2.9,0 -17.6,0.9 -34,9.5 -44.7,23.5 l -365.1,476.2 c -20.2,26.3 -15.2,64 11.1,84.1 26.3,20.2 63.9,15.2 84.1,-11.1 l 322,-420 840.7,900.7 c 22.6,24.3 60.6,25.6 84.8,2.9 24.2,-22.6 25.5,-60.5 2.9,-84.7 l -889,-952.6 c -11.4,-12.2 -27.3,-19 -43.9,-19"
         style="fill:#f37168;fill-opacity:1;fill-rule:nonzero;stroke:none"
         id="path40" /><path
         d="m 30088.9,2747.4 c -2079.7,101.7 -9154.6,-70.6 -11306.3,-137.7 -2151.7,-67.2 -4649.3,88.6 -5946.7,317.6 -1297.4,229 -8796.7,-19.5 -8456.38,-635.3 340.31,-615.8 3341.3,-275.4 6744.48,-522.9 3403.2,-247.5 11057,30.9 12783.4,0 1726.5,-31 3309.6,61.8 5534.5,185.6 2224.9,123.7 1852.6,733.8 647,792.7"
         style="fill:#cce2ff;fill-opacity:1;fill-rule:nonzero;stroke:none"
         id="path42" /><path
         d="m 4484.03,8498.3 h 4347.45 v 7125.73 H 4484.03 Z"
         style="fill:#99bbeb;fill-opacity:1;fill-rule:nonzero;stroke:none"
         id="path44" /><path
         d="m 4711.71,8769.9 h 3976.85 v 6708.94 H 4711.71 Z"
         style="fill:#ffffff;fill-opacity:1;fill-rule:nonzero;stroke:none"
         id="path46" /><path
         d="m 5901.22,12788.5 c 149.68,322.1 403.01,425.2 819.02,425.2 495.34,0 752.54,-179.5 825.45,-440.7 -887.04,-12.2 -1644.47,15.5 -1644.47,15.5"
         style="fill:#9bd6e8;fill-opacity:1;fill-rule:nonzero;stroke:none"
         id="path48" /><path
         d="m 6547.26,14779.8 c -209.69,-58.8 -200.5,-176.7 -270.37,-286 -69.87,-109.4 -221.76,-182.3 -239.99,-255.2 -18.22,-72.9 46.78,-224.8 -30.37,-309.9 -77.15,-85 -103.29,-127.5 -72.91,-212.6 30.38,-85.1 97.21,-218.7 103.28,-236.9 6.08,-18.3 91.14,-145.9 194.43,-164.1 103.28,-18.2 297.7,-48.6 394.92,-91.1 97.2,-42.6 409.76,54.4 583.26,48.3 173.49,-6 291.63,121.8 279.47,206.9 -12.14,85 127.94,255.1 127.59,400.9 -0.37,156.6 -182.27,273.4 -230.87,376.7 -48.61,103.3 6.08,285.6 -176.19,393.5 -115.19,68.3 -194.43,62.2 -285.56,92.6 -91.13,30.4 -243.03,74.4 -376.69,36.9"
         style="fill:#3a384d;fill-opacity:1;fill-rule:nonzero;stroke:none"
         id="path50" /><path
         d="m 6802.44,12956.6 c -47.43,-70 -82.2,-72.9 -133.67,0 -40.92,58 -121.51,189.7 -121.51,256.5 v 667 c 0,66.9 54.68,121.6 121.51,121.6 h 133.67 c 66.83,0 121.51,-54.7 121.51,-121.6 v -667 c 0,-66.8 -78.98,-193.7 -121.51,-256.5"
         style="fill:#f09959;fill-opacity:1;fill-rule:nonzero;stroke:none"
         id="path52" /><path
         d="m 6802.44,14001.7 h -133.67 c -66.83,0 -121.51,-54.7 -121.51,-121.6 V 13285 c 150.08,-47.7 287.06,47.2 376.69,154.2 v 440.9 c 0,66.9 -54.68,121.6 -121.51,121.6"
         style="fill:#e38540;fill-opacity:1;fill-rule:nonzero;stroke:none"
         id="path54" /><path
         d="m 7139.63,13994.9 c 0,-304 -180.88,-550.5 -404.02,-550.5 -223.14,0 -404.04,246.5 -404.04,550.5 0,304 180.9,550.5 404.04,550.5 223.14,0 404.02,-246.5 404.02,-550.5"
         style="fill:#f09959;fill-opacity:1;fill-rule:nonzero;stroke:none"
         id="path56" /><path
         d="m 6923.95,14433 c -255.18,-431.3 -631.87,-388.8 -631.87,-388.8 0,0 9.12,571.1 308.34,601.5 299.23,30.3 475.42,-89.7 536.18,-287.9 60.75,-198.2 0,-328.8 0,-328.8 0,0 -97.22,75.9 -145.82,197.4 -48.6,121.6 -66.83,206.6 -66.83,206.6"
         style="fill:#3a384d;fill-opacity:1;fill-rule:nonzero;stroke:none"
         id="path58" /><path
         d="m 6372.93,14003.4 c 37.79,-79.6 25.43,-164.5 -27.61,-189.7 -53.04,-25.2 -126.68,18.9 -164.47,98.5 -37.78,79.5 -25.42,164.4 27.62,189.6 53.04,25.2 126.68,-18.9 164.46,-98.4"
         style="fill:#f09959;fill-opacity:1;fill-rule:nonzero;stroke:none"
         id="path60" /><path
         d="m 7080.05,14003.4 c -37.79,-79.6 -25.43,-164.5 27.62,-189.7 53.04,-25.2 126.67,18.9 164.46,98.5 37.79,79.5 25.42,164.4 -27.62,189.6 -53.04,25.2 -126.67,-18.9 -164.46,-98.4"
         style="fill:#f09959;fill-opacity:1;fill-rule:nonzero;stroke:none"
         id="path62" /><path
         d="m 6887.5,13696.3 c 0,0 -68.01,-88.1 -151.89,-88.1 -83.89,0 -151.89,88.1 -151.89,88.1 h 303.78"
         style="fill:#ffffff;fill-opacity:1;fill-rule:nonzero;stroke:none"
         id="path64" /><path
         d="M 7216.56,11915.2 H 6196.24 c -65.25,0 -118.64,53.4 -118.64,118.7 0,65.2 53.39,118.6 118.64,118.6 h 1020.32 c 65.25,0 118.64,-53.4 118.64,-118.6 0,-65.3 -53.39,-118.7 -118.64,-118.7"
         style="fill:#99bbeb;fill-opacity:1;fill-rule:nonzero;stroke:none"
         id="path66" /><path
         d="M 7403.37,11550.7 H 6009.42 c -65.25,0 -118.63,53.4 -118.63,118.6 0,65.3 53.38,118.7 118.63,118.7 h 1393.95 c 65.25,0 118.64,-53.4 118.64,-118.7 0,-65.2 -53.39,-118.6 -118.64,-118.6"
         style="fill:#99bbeb;fill-opacity:1;fill-rule:nonzero;stroke:none"
         id="path68" /><path
         d="M 8401.78,10239.7 H 5011.02 c -37.86,0 -68.84,31 -68.84,68.9 0,37.8 30.98,68.8 68.84,68.8 h 3390.76 c 37.87,0 68.84,-31 68.84,-68.8 0,-37.9 -30.97,-68.9 -68.84,-68.9"
         style="fill:#99bbeb;fill-opacity:1;fill-rule:nonzero;stroke:none"
         id="path70" /><path
         d="M 8401.78,9919.8 H 5011.02 c -37.86,0 -68.84,31 -68.84,68.8 0,37.9 30.98,68.9 68.84,68.9 h 3390.76 c 37.87,0 68.84,-31 68.84,-68.9 0,-37.8 -30.97,-68.8 -68.84,-68.8"
         style="fill:#99bbeb;fill-opacity:1;fill-rule:nonzero;stroke:none"
         id="path72" /><path
         d="M 8401.78,9599.8 H 5011.02 c -37.86,0 -68.84,31 -68.84,68.9 0,37.8 30.98,68.8 68.84,68.8 h 3390.76 c 37.87,0 68.84,-31 68.84,-68.8 0,-37.9 -30.97,-68.9 -68.84,-68.9"
         style="fill:#99bbeb;fill-opacity:1;fill-rule:nonzero;stroke:none"
         id="path74" /><path
         d="m 5485.26,15106.1 c -12.42,0 -22.91,-10.5 -22.91,-22.9 v -2250.9 c 0,-12.4 10.49,-22.9 22.91,-22.9 h 2442.28 c 12.42,0 22.91,10.5 22.91,22.9 v 2250.9 c 0,12.4 -10.49,22.9 -22.91,22.9 z M 7927.54,12709.4 H 5485.26 c -67.77,0 -122.91,55.1 -122.91,122.9 v 2250.9 c 0,67.8 55.14,122.9 122.91,122.9 h 2442.28 c 67.77,0 122.91,-55.1 122.91,-122.9 v -2250.9 c 0,-67.8 -55.14,-122.9 -122.91,-122.9"
         style="fill:#99bbeb;fill-opacity:1;fill-rule:nonzero;stroke:none"
         id="path76" /><path
         d="m 5837.69,11241.2 70.7,-143.3 158.11,-23 -114.41,-111.5 27.01,-157.5 -141.41,74.4 -141.42,-74.4 27.01,157.5 -114.41,111.5 158.11,23 70.71,143.3"
         style="fill:#99bbeb;fill-opacity:1;fill-rule:nonzero;stroke:none"
         id="path78" /><path
         d="m 6416.83,11241.2 70.7,-143.3 158.11,-23 -114.4,-111.5 27,-157.5 -141.41,74.4 -141.42,-74.4 27.01,157.5 -114.41,111.5 158.11,23 70.71,143.3"
         style="fill:#99bbeb;fill-opacity:1;fill-rule:nonzero;stroke:none"
         id="path80" /><path
         d="m 6995.97,11241.2 70.71,-143.3 158.11,-23 -114.41,-111.5 27.01,-157.5 -141.42,74.4 -141.41,-74.4 27,157.5 -114.4,111.5 158.1,23 70.71,143.3"
         style="fill:#99bbeb;fill-opacity:1;fill-rule:nonzero;stroke:none"
         id="path82" /><path
         d="m 7575.11,11241.2 70.71,-143.3 158.11,-23 -114.41,-111.5 27.01,-157.5 -141.42,74.4 -141.41,-74.4 27,157.5 -114.4,111.5 158.1,23 70.71,143.3"
         style="fill:#99bbeb;fill-opacity:1;fill-rule:nonzero;stroke:none"
         id="path84" /><path
         d="m 14176.2,8498.3 h 4347.4 v 7125.73 h -4347.4 z"
         style="fill:#99bbeb;fill-opacity:1;fill-rule:nonzero;stroke:none"
         id="path86" /><path
         d="m 14403.8,8769.9 h 3976.9 v 6708.94 h -3976.9 z"
         style="fill:#ffffff;fill-opacity:1;fill-rule:nonzero;stroke:none"
         id="path88" /><path
         d="m 15782.3,14031.2 c 0,-319.1 192.1,-834.1 645.4,-817.6 453.4,16.5 553.6,507.4 571.2,646 17.5,138.5 -1216.6,171.6 -1216.6,171.6"
         style="fill:#7a4e34;fill-opacity:1;fill-rule:nonzero;stroke:none"
         id="path90" /><path
         d="m 15593.4,12788.5 c 149.6,322.1 403,425.2 819,425.2 495.3,0 752.5,-179.5 825.4,-440.7 -887,-12.2 -1644.4,15.5 -1644.4,15.5"
         style="fill:#d54a41;fill-opacity:1;fill-rule:nonzero;stroke:none"
         id="path92" /><path
         d="m 16494.6,12956.6 c -47.5,-70 -82.2,-72.9 -133.7,0 -40.9,58 -121.5,189.7 -121.5,256.5 v 667 c 0,66.9 54.7,121.6 121.5,121.6 h 133.7 c 66.8,0 121.5,-54.7 121.5,-121.6 v -667 c 0,-66.8 -79,-193.7 -121.5,-256.5"
         style="fill:#f09959;fill-opacity:1;fill-rule:nonzero;stroke:none"
         id="path94" /><path
         d="m 16494.6,14001.7 h -133.7 c -66.8,0 -121.5,-54.7 -121.5,-121.6 V 13285 c 150.1,-47.7 287.1,47.2 376.7,154.2 v 440.9 c 0,66.9 -54.7,121.6 -121.5,121.6"
         style="fill:#e38540;fill-opacity:1;fill-rule:nonzero;stroke:none"
         id="path96" /><path
         d="m 16831.8,13994.9 c 0,-304 -180.9,-550.5 -404.1,-550.5 -223.1,0 -404,246.5 -404,550.5 0,304 180.9,550.5 404,550.5 223.2,0 404.1,-246.5 404.1,-550.5"
         style="fill:#f09959;fill-opacity:1;fill-rule:nonzero;stroke:none"
         id="path98" /><path
         d="m 16649.8,14413.3 c -48,-169.3 -153.2,-167.3 -299.9,-222.9 -146.7,-55.6 -216.8,-111.5 -264.8,-219.8 -61.3,-138.1 27.8,-540.8 27.8,-540.8 0,0 -371.5,278 -328.6,715.1 43,437.2 300.8,606.5 543.3,606.5 242.6,0 334.9,-147.8 334.9,-147.8 0,0 129.2,-0.6 251.4,-145.3 164.3,-194.6 113.7,-667.2 0,-836.5 -113.7,-169.3 -189.5,-222.4 -187,-214.8 2.5,7.6 106.1,396.4 50.6,636.8 -55.6,240.5 -127.7,369.5 -127.7,369.5"
         style="fill:#7a4e34;fill-opacity:1;fill-rule:nonzero;stroke:none"
         id="path100" /><path
         d="m 16579.6,13696.3 c 0,0 -68,-88.1 -151.9,-88.1 -83.8,0 -151.9,88.1 -151.9,88.1 h 303.8"
         style="fill:#ffffff;fill-opacity:1;fill-rule:nonzero;stroke:none"
         id="path102" /><path
         d="m 16908.7,11915.2 h -1020.3 c -65.3,0 -118.7,53.4 -118.7,118.7 0,65.2 53.4,118.6 118.7,118.6 h 1020.3 c 65.2,0 118.6,-53.4 118.6,-118.6 0,-65.3 -53.4,-118.7 -118.6,-118.7"
         style="fill:#99bbeb;fill-opacity:1;fill-rule:nonzero;stroke:none"
         id="path104" /><path
         d="m 17095.5,11550.7 h -1393.9 c -65.3,0 -118.7,53.4 -118.7,118.6 0,65.3 53.4,118.7 118.7,118.7 h 1393.9 c 65.3,0 118.7,-53.4 118.7,-118.7 0,-65.2 -53.4,-118.6 -118.7,-118.6"
         style="fill:#99bbeb;fill-opacity:1;fill-rule:nonzero;stroke:none"
         id="path106" /><path
         d="m 18093.9,10239.7 h -3390.7 c -37.9,0 -68.9,31 -68.9,68.9 0,37.8 31,68.8 68.9,68.8 h 3390.7 c 37.9,0 68.9,-31 68.9,-68.8 0,-37.9 -31,-68.9 -68.9,-68.9"
         style="fill:#99bbeb;fill-opacity:1;fill-rule:nonzero;stroke:none"
         id="path108" /><path
         d="m 18093.9,9919.8 h -3390.7 c -37.9,0 -68.9,31 -68.9,68.8 0,37.9 31,68.9 68.9,68.9 h 3390.7 c 37.9,0 68.9,-31 68.9,-68.9 0,-37.8 -31,-68.8 -68.9,-68.8"
         style="fill:#99bbeb;fill-opacity:1;fill-rule:nonzero;stroke:none"
         id="path110" /><path
         d="m 18093.9,9599.8 h -3390.7 c -37.9,0 -68.9,31 -68.9,68.9 0,37.8 31,68.8 68.9,68.8 h 3390.7 c 37.9,0 68.9,-31 68.9,-68.8 0,-37.9 -31,-68.9 -68.9,-68.9"
         style="fill:#99bbeb;fill-opacity:1;fill-rule:nonzero;stroke:none"
         id="path112" /><path
         d="m 15177.4,15106.1 c -12.4,0 -22.9,-10.5 -22.9,-22.9 v -2250.9 c 0,-12.4 10.5,-22.9 22.9,-22.9 h 2442.3 c 12.4,0 22.9,10.5 22.9,22.9 v 2250.9 c 0,12.4 -10.5,22.9 -22.9,22.9 z m 2442.3,-2396.7 h -2442.3 c -67.8,0 -122.9,55.1 -122.9,122.9 v 2250.9 c 0,67.8 55.1,122.9 122.9,122.9 h 2442.3 c 67.8,0 122.9,-55.1 122.9,-122.9 v -2250.9 c 0,-67.8 -55.1,-122.9 -122.9,-122.9"
         style="fill:#99bbeb;fill-opacity:1;fill-rule:nonzero;stroke:none"
         id="path114" /><path
         d="m 15529.8,11241.2 70.7,-143.3 158.1,-23 -114.4,-111.5 27,-157.5 -141.4,74.4 -141.4,-74.4 27,157.5 -114.4,111.5 158.1,23 70.7,143.3"
         style="fill:#99bbeb;fill-opacity:1;fill-rule:nonzero;stroke:none"
         id="path116" /><path
         d="m 16109,11241.2 70.7,-143.3 158.1,-23 -114.4,-111.5 27,-157.5 -141.4,74.4 -141.5,-74.4 27.1,157.5 -114.4,111.5 158.1,23 70.7,143.3"
         style="fill:#99bbeb;fill-opacity:1;fill-rule:nonzero;stroke:none"
         id="path118" /><path
         d="m 16688.1,11241.2 70.7,-143.3 158.1,-23 -114.4,-111.5 27,-157.5 -141.4,74.4 -141.4,-74.4 27,157.5 -114.4,111.5 158.1,23 70.7,143.3"
         style="fill:#99bbeb;fill-opacity:1;fill-rule:nonzero;stroke:none"
         id="path120" /><path
         d="m 17267.3,11241.2 70.7,-143.3 158.1,-23 -114.4,-111.5 27,-157.5 -141.4,74.4 -141.5,-74.4 27,157.5 -114.4,111.5 158.1,23 70.8,143.3"
         style="fill:#99bbeb;fill-opacity:1;fill-rule:nonzero;stroke:none"
         id="path122" /><path
         d="M 14176.2,8569.6 H 8831.48 v 7028 h 5278.22 c -4.1,-68 -6.3,-136.4 -6.3,-205.4 0,-68.3 2.3,-136.1 6.2,-203.4 l 66.6,-21.6 V 8569.6"
         style="fill:#d7e8fa;fill-opacity:1;fill-rule:nonzero;stroke:none"
         id="path124" /><path
         d="m 14176.2,15167.2 -66.6,21.6 c -3.9,67.3 -6.2,135.1 -6.2,203.4 0,69 2.2,137.4 6.3,205.4 h 66.5 v -430.4"
         style="fill:#9dc5fb;fill-opacity:1;fill-rule:nonzero;stroke:none"
         id="path126" /><path
         d="M 8831.48,8569.6 H 7803.93 l 13.83,200.3 h 870.8 v 6708.9 h -407.51 l 8.2,118.8 h 542.23 v -7028"
         style="fill:#99bbeb;fill-opacity:1;fill-rule:nonzero;stroke:none"
         id="path128" /><path
         d="m 8688.56,8769.9 h -870.8 l 57.31,829.9 h 526.71 c 37.87,0 68.84,31 68.84,68.9 0,37.8 -30.97,68.8 -68.84,68.8 h -517.2 l 12.59,182.3 h 504.61 c 37.87,0 68.84,31 68.84,68.8 0,37.9 -30.97,68.9 -68.84,68.9 h -495.11 l 12.59,182.2 h 482.52 c 37.87,0 68.84,31 68.84,68.9 0,37.8 -30.97,68.8 -68.84,68.8 h -473.01 l 352.28,5101.4 h 407.51 V 8769.9"
         style="fill:#ebf1fb;fill-opacity:1;fill-rule:nonzero;stroke:none"
         id="path130" /><path
         d="m 8401.78,10239.7 h -482.52 l 9.51,137.7 h 473.01 c 37.87,0 68.84,-31 68.84,-68.8 0,-37.9 -30.97,-68.9 -68.84,-68.9"
         style="fill:#99bbeb;fill-opacity:1;fill-rule:nonzero;stroke:none"
         id="path132" /><path
         d="m 8401.78,9919.8 h -504.61 l 9.5,137.7 h 495.11 c 37.87,0 68.84,-31 68.84,-68.9 0,-37.8 -30.97,-68.8 -68.84,-68.8"
         style="fill:#99bbeb;fill-opacity:1;fill-rule:nonzero;stroke:none"
         id="path134" /><path
         d="m 8401.78,9599.8 h -526.71 l 9.51,137.7 h 517.2 c 37.87,0 68.84,-31 68.84,-68.8 0,-37.9 -30.97,-68.9 -68.84,-68.9"
         style="fill:#99bbeb;fill-opacity:1;fill-rule:nonzero;stroke:none"
         id="path136" /><path
         d="m 14664.9,8569.6 h -488.7 v 7028 h 736.1 l -4.2,-118.8 h -504.3 V 8769.9 h 268.1 l -7,-200.3"
         style="fill:#99bbeb;fill-opacity:1;fill-rule:nonzero;stroke:none"
         id="path138" /><path
         d="m 14671.9,8769.9 h -268.1 v 6708.9 h 504.3 l -179.6,-5101.4 h -25.3 c -37.9,0 -68.9,-31 -68.9,-68.8 0,-37.9 31,-68.9 68.9,-68.9 h 20.5 l -6.5,-182.2 h -14 c -37.9,0 -68.9,-31 -68.9,-68.9 0,-37.8 31,-68.8 68.9,-68.8 h 9.2 l -6.4,-182.3 h -2.8 c -37.9,0 -68.9,-31 -68.9,-68.8 0,-37.2 29.9,-67.8 66.8,-68.8 l -29.2,-830"
         style="fill:#ebf1fb;fill-opacity:1;fill-rule:nonzero;stroke:none"
         id="path140" /><path
         d="m 14723.7,10239.7 h -20.5 c -37.9,0 -68.9,31 -68.9,68.9 0,37.8 31,68.8 68.9,68.8 h 25.3 l -4.8,-137.7"
         style="fill:#99bbeb;fill-opacity:1;fill-rule:nonzero;stroke:none"
         id="path142" /><path
         d="m 14712.4,9919.8 h -9.2 c -37.9,0 -68.9,31 -68.9,68.8 0,37.9 31,68.9 68.9,68.9 h 14 l -4.8,-137.7"
         style="fill:#99bbeb;fill-opacity:1;fill-rule:nonzero;stroke:none"
         id="path144" /><path
         d="m 14701.1,9599.9 c -36.9,1 -66.8,31.6 -66.8,68.8 0,37.8 31,68.8 68.9,68.8 h 2.8 l -4.9,-137.6"
         style="fill:#99bbeb;fill-opacity:1;fill-rule:nonzero;stroke:none"
         id="path146" /><path
         d="M 14462.6,7194.9 H 8524.62 v 9732.6 H 14462.6 V 7194.9"
         style="fill:#99bbeb;fill-opacity:1;fill-rule:nonzero;stroke:none"
         id="path148" /><path
         d="M 14267.3,7565.8 H 8835.59 v 9163.4 H 14267.3 V 7565.8"
         style="fill:#ffffff;fill-opacity:1;fill-rule:nonzero;stroke:none"
         id="path150" /><path
         d="m 11045.3,14804.5 c -3.8,11.3 -98.9,557.2 -110.3,769.4 -11.3,212.3 341.2,242.6 341.2,242.6 0,0 288,155.4 496.5,75.8 208.5,-79.6 350.4,-213.5 445.1,-380.3 94.8,-166.8 -83.3,-686.5 -83.3,-686.5 l -1089.2,-21"
         style="fill:#2e2d3d;fill-opacity:1;fill-rule:nonzero;stroke:none"
         id="path152" /><path
         d="m 10391.7,13050.7 c -1.3,9 24.4,223.8 25.3,232.5 48,452.3 605.6,579.6 1161.9,579.6 653.7,0 1097.2,-119.7 1168,-589.7 2.1,-13.8 39.8,-229.1 37.9,-243.6 -1211.6,-16.6 -2393.1,21.2 -2393.1,21.2"
         style="fill:#d5e1e8;fill-opacity:1;fill-rule:nonzero;stroke:none"
         id="path154" /><path
         d="m 11691.2,13511.7 c -64.8,-95.6 -112.3,-99.6 -182.6,0 -55.9,79.1 -242.5,259.8 -242.5,351.1 l 76.6,910.2 c 0,91.3 74.7,166 165.9,166 h 182.6 c 91.3,0 166,-74.7 166,-166 l 35.6,-910.2 c 0,-91.3 -143.5,-265.4 -201.6,-351.1"
         style="fill:#f09959;fill-opacity:1;fill-rule:nonzero;stroke:none"
         id="path156" /><path
         d="m 11691.2,14939 h -182.6 c -91.2,0 -165.9,-74.7 -165.9,-166 l -66.5,-807.5 c 205,-65.3 481.8,67.4 604.2,213.5 l -23.2,594 c 0,91.3 -74.7,166 -166,166"
         style="fill:#e38540;fill-opacity:1;fill-rule:nonzero;stroke:none"
         id="path158" /><path
         d="m 10973.4,13796.4 292.7,-541 c 0,0 156.6,128.9 171.8,103.6 15.2,-25.2 -27.8,-344.1 -27.8,-344.1 0,0 348.7,-4.8 363.9,10.4 15.2,15.1 -70.8,346.4 -35.4,346.4 35.4,0 141.8,-96.1 141.8,-96.1 l 326.8,520.8 -71.8,17.5 -535.5,-288.1 -572.6,281.8 -53.9,-11.2"
         style="fill:#bdccd4;fill-opacity:1;fill-rule:nonzero;stroke:none"
         id="path160" /><path
         d="m 11308.1,13547.1 217.4,-145.8 -67.4,-387.1 293.1,16.3 -73.2,352.1 180.2,164.5 -84.7,79.8 h -380.8 l -84.6,-79.8"
         style="fill:#d54a41;fill-opacity:1;fill-rule:nonzero;stroke:none"
         id="path162" /><path
         d="m 11281.2,14061.5 -268.8,-255.8 c 0,0 273.9,-487.1 289,-487.1 15.2,0 232.5,268.6 232.5,268.6 l 139.1,2.4 219.8,-230.6 255.3,451.8 -260.4,276 c 0,0 -222.4,-429.6 -262.8,-439.7 -40.4,-10.1 -40.7,-15.2 -73.4,10.1 -32.7,25.3 -270.3,404.3 -270.3,404.3"
         style="fill:#d5e1e8;fill-opacity:1;fill-rule:nonzero;stroke:none"
         id="path164" /><path
         d="m 12151.8,14929.8 c 0,-415.3 -247.1,-752 -551.9,-752 -304.8,0 -551.8,336.7 -551.8,752 0,415.3 247,751.9 551.8,751.9 304.8,0 551.9,-336.6 551.9,-751.9"
         style="fill:#f09959;fill-opacity:1;fill-rule:nonzero;stroke:none"
         id="path166" /><path
         d="m 11104.6,14941.4 c 51.6,-108.7 34.7,-224.7 -37.8,-259.1 -72.4,-34.4 -173,25.8 -224.6,134.5 -51.6,108.6 -34.7,224.6 37.7,259 72.5,34.4 173.1,-25.8 224.7,-134.4"
         style="fill:#f09959;fill-opacity:1;fill-rule:nonzero;stroke:none"
         id="path168" /><path
         d="m 12070.4,14941.4 c -51.6,-108.7 -34.7,-224.7 37.7,-259.1 72.4,-34.4 173,25.8 224.6,134.5 51.6,108.6 34.8,224.6 -37.7,259 -72.4,34.4 -173,-25.8 -224.6,-134.4"
         style="fill:#f09959;fill-opacity:1;fill-rule:nonzero;stroke:none"
         id="path170" /><path
         d="m 11844.7,14621.3 c 0,0 -109.6,-177.6 -244.8,-177.6 -135.2,0 -244.8,177.6 -244.8,177.6 h 489.6"
         style="fill:#ffffff;fill-opacity:1;fill-rule:nonzero;stroke:none"
         id="path172" /><path
         d="m 11276.2,15441.3 c 227.4,159.2 329.7,132.6 500.3,-128.9 170.6,-261.5 375.3,-266.2 375.3,-266.2 l 26.5,271.2 c 0,0 -254.1,491.5 -595.2,427.1 -341,-64.4 -535,-371.5 -535,-371.5 0,0 -16.6,-575.4 31,-595.1 47.6,-19.6 53,185.8 87.1,227.5 34.2,41.7 -34.1,238.8 11.4,329.7 45.5,91 98.6,106.2 98.6,106.2"
         style="fill:#2e2d3d;fill-opacity:1;fill-rule:nonzero;stroke:none"
         id="path174" /><path
         d="m 12007.7,15145.6 c 79.4,-86.9 49.3,-432.1 91,-428.3 41.7,3.8 56.9,329.8 45.5,363.9 -11.4,34.1 -136.5,64.4 -136.5,64.4"
         style="fill:#2e2d3d;fill-opacity:1;fill-rule:nonzero;stroke:none"
         id="path176" /><path
         d="m 12827.4,11861.8 h -2534.8 c -89.1,0 -162,72.9 -162,162.1 0,89.1 72.9,162 162,162 h 2534.8 c 89.2,0 162.1,-72.9 162.1,-162 0,-89.2 -72.9,-162.1 -162.1,-162.1"
         style="fill:#99bbeb;fill-opacity:1;fill-rule:nonzero;stroke:none"
         id="path178" /><path
         d="m 12512,11363.9 h -1903.9 c -89.2,0 -162.1,73 -162.1,162.1 0,89.1 72.9,162 162.1,162 H 12512 c 89.1,0 162,-72.9 162,-162 0,-89.1 -72.9,-162.1 -162,-162.1"
         style="fill:#99bbeb;fill-opacity:1;fill-rule:nonzero;stroke:none"
         id="path180" /><path
         d="M 13875.7,9573.4 H 9244.39 c -51.71,0 -94.02,42.3 -94.02,94 0,51.7 42.31,94 94.02,94 h 4631.31 c 51.7,0 94,-42.3 94,-94 0,-51.7 -42.3,-94 -94,-94"
         style="fill:#99bbeb;fill-opacity:1;fill-rule:nonzero;stroke:none"
         id="path182" /><path
         d="M 13875.7,9136.4 H 9244.39 c -51.71,0 -94.02,42.3 -94.02,94 0,51.7 42.31,94 94.02,94 h 4631.31 c 51.7,0 94,-42.3 94,-94 0,-51.7 -42.3,-94 -94,-94"
         style="fill:#99bbeb;fill-opacity:1;fill-rule:nonzero;stroke:none"
         id="path184" /><path
         d="M 13875.7,8699.3 H 9244.39 c -51.71,0 -94.02,42.4 -94.02,94.1 0,51.7 42.31,94 94.02,94 h 4631.31 c 51.7,0 94,-42.3 94,-94 0,-51.7 -42.3,-94.1 -94,-94.1"
         style="fill:#99bbeb;fill-opacity:1;fill-rule:nonzero;stroke:none"
         id="path186" /><path
         d="m 9892.14,16238.4 c -27.34,0 -49.58,-22.2 -49.58,-49.6 v -3074.4 c 0,-27.3 22.24,-49.5 49.58,-49.5 h 3335.76 c 27.4,0 49.6,22.2 49.6,49.5 v 3074.4 c 0,27.4 -22.2,49.6 -49.6,49.6 z M 13227.9,12964.9 H 9892.14 c -82.48,0 -149.58,67 -149.58,149.5 v 3074.4 c 0,82.5 67.1,149.6 149.58,149.6 h 3335.76 c 82.5,0 149.6,-67.1 149.6,-149.6 v -3074.4 c 0,-82.5 -67.1,-149.5 -149.6,-149.5"
         style="fill:#99bbeb;fill-opacity:1;fill-rule:nonzero;stroke:none"
         id="path188" /><path
         d="m 9971.7,10941.2 96.6,-195.7 215.9,-31.4 -156.2,-152.3 36.9,-215.1 -193.2,101.6 -193.15,-101.6 36.89,215.1 -156.26,152.3 215.95,31.4 96.57,195.7"
         style="fill:#99bbeb;fill-opacity:1;fill-rule:nonzero;stroke:none"
         id="path190" /><path
         d="m 10762.7,10941.2 96.6,-195.7 216,-31.4 -156.3,-152.3 36.9,-215.1 -193.2,101.6 -193.1,-101.6 36.9,215.1 -156.3,152.3 216,31.4 96.5,195.7"
         style="fill:#99bbeb;fill-opacity:1;fill-rule:nonzero;stroke:none"
         id="path192" /><path
         d="m 11553.7,10941.2 96.6,-195.7 216,-31.4 -156.3,-152.3 36.9,-215.1 -193.2,101.6 -193.1,-101.6 36.9,215.1 -156.3,152.3 216,31.4 96.5,195.7"
         style="fill:#99bbeb;fill-opacity:1;fill-rule:nonzero;stroke:none"
         id="path194" /><path
         d="m 12344.8,10941.2 96.5,-195.7 216,-31.4 -156.3,-152.3 36.9,-215.1 -193.1,101.6 -193.2,-101.6 36.9,215.1 -156.3,152.3 216,31.4 96.6,195.7"
         style="fill:#99bbeb;fill-opacity:1;fill-rule:nonzero;stroke:none"
         id="path196" /><path
         d="m 13148.4,10941.2 96.5,-195.7 216,-31.4 -156.3,-152.3 36.9,-215.1 -193.1,101.6 -193.2,-101.6 36.9,215.1 -156.3,152.3 216,31.4 96.6,195.7"
         style="fill:#99bbeb;fill-opacity:1;fill-rule:nonzero;stroke:none"
         id="path198" /><path
         d="m 23999.1,7507.7 h -7619.6 c -45.8,0 -82.9,37.1 -82.9,82.9 v 124.3 c 0,45.8 37.1,82.9 82.9,82.9 h 7619.6 c 45.8,0 82.9,-37.1 82.9,-82.9 v -124.3 c 0,-45.8 -37.1,-82.9 -82.9,-82.9"
         style="fill:#2e5b9a;fill-opacity:1;fill-rule:nonzero;stroke:none"
         id="path200" /><path
         d="m 25961.1,11685.9 c 103.2,-364 -148.9,-739 -426.7,-817.8 -277.8,-78.8 -476,168.5 -579.2,532.5 -103.3,364 38.2,722.9 316,801.7 277.8,78.8 586.6,-152.4 689.9,-516.4"
         style="fill:#f09959;fill-opacity:1;fill-rule:nonzero;stroke:none"
         id="path202" /><path
         d="m 24403.7,4632.9 c 0,0 711.9,-1105.7 808.1,-1153.7 96.1,-48.1 336.5,-60.1 246.3,-240.4 -90.1,-180.3 -126.2,-889.4 -210.3,-925.4 -84.1,-36.1 -805.2,-120.2 -697.1,0 108.2,120.2 174.7,60.1 229.3,276.4 54.6,216.3 131.3,624.9 29.1,709.1 -102.1,84.1 -727.1,841.3 -727.1,841.3 l 321.7,492.7"
         style="fill:#f09959;fill-opacity:1;fill-rule:nonzero;stroke:none"
         id="path204" /><path
         d="m 20820.7,4158.1 c 0,0 -865.3,-1426.3 -1025.6,-1554.5 -160.2,-128.2 -689.1,-320.5 -256.4,-352.5 432.7,-32.1 641,144.2 913.4,224.3 272.5,80.1 609,128.2 480.8,336.6 -128.2,208.3 -75,663.1 201.4,951.5 276.4,288.5 -313.6,394.6 -313.6,394.6"
         style="fill:#f09959;fill-opacity:1;fill-rule:nonzero;stroke:none"
         id="path206" /><path
         d="m 25236.8,7465.4 c 0,0 -2142.2,56 -2991.5,-641 -496.8,-753.2 -1698.6,-2975.5 -1792.1,-3220.4 64.1,-64.1 424.7,-179.8 585,-163.8 472.7,563.7 1097.6,1051 1346.1,1493.2 306.2,544.8 400.6,817.3 897.4,865.3 496.8,48.1 1618.6,208.4 1955.1,208.4 336.5,0 0,1458.3 0,1458.3"
         style="fill:#6791c9;fill-opacity:1;fill-rule:nonzero;stroke:none"
         id="path208" /><path
         d="m 27104.9,2247.2 h -112.3 l -805.2,3359.6 h 247 l 670.5,-3359.6"
         style="fill:#2e5b9a;fill-opacity:1;fill-rule:nonzero;stroke:none"
         id="path210" /><path
         d="m 23741.1,2247.2 h 112.3 l 924,3478.3 h -247 l -789.3,-3478.3"
         style="fill:#2e5b9a;fill-opacity:1;fill-rule:nonzero;stroke:none"
         id="path212" /><path
         d="m 26457.2,7612.1 -1245.4,-215 c 0,0 -1655.1,-15.2 -2411.6,-156.1 -688.3,-128.2 -789.8,-910.2 0,-1987.1 448.6,-611.8 827.9,-1099.7 1603.5,-1649.9 197.3,144.8 272.8,199.6 327.3,548.2 -56.1,77 -201.4,558.7 -246.5,653 -429.1,896.8 -1001.7,1222.9 -1009.7,1311.2 96.2,156.2 2546.9,-814.4 3034.1,-243.5 465.3,545.2 -51.7,1739.2 -51.7,1739.2"
         style="fill:#75a1de;fill-opacity:1;fill-rule:nonzero;stroke:none"
         id="path214" /><path
         d="m 26508.9,10431.7 c -328,46.1 -662,-16.3 -974.5,-242.5 -273,-278.3 -581.9,-737.2 -563,-1494.3 24,-961.5 -148.8,-1023.2 31.5,-1287.6 751.9,-310.5 2037.8,-1644.5 1735,-214.4 -219.3,1035.6 480.9,1807.5 -83.9,2956.2 -46,93.5 -103.5,184.2 -145.1,282.6"
         style="fill:#f37168;fill-opacity:1;fill-rule:nonzero;stroke:none"
         id="path216" /><path
         d="m 24971.2,8333.1 c -14.6,-501.3 -85.4,-648.9 -31.3,-806.1 306.5,-31.3 867.2,-153.9 1007.3,-350.1 160.3,-224.3 320.6,-256.4 245.8,-90.8 -74.8,165.6 -272.5,400.6 32,1207.2 304.5,806.7 448.7,1351.5 149.6,1912.4 L 24971.2,8333.1"
         style="fill:#d54a41;fill-opacity:1;fill-rule:nonzero;stroke:none"
         id="path218" /><path
         d="m 26508.9,10431.7 c -201.9,478.2 -251.5,1015.4 -251.5,1015.4 l -528.9,-156.2 c 0,0 300.5,-673 12.1,-913.4 -61.4,-51.1 -132.5,-113.1 -206.2,-188.3 312.5,226.2 646.5,288.6 974.5,242.5"
         style="fill:#f09959;fill-opacity:1;fill-rule:nonzero;stroke:none"
         id="path220" /><path
         d="m 26273.3,11319.8 c -31.3,27.9 -70.5,62.6 -111.7,99 l -431.3,-127.4 -0.9,-2.4 c 10.4,-23.8 120.2,-280.1 134.7,-526.7 128.5,77.9 269.3,205.1 430.2,427.2 -8.7,49.3 -15.6,93.2 -21,130.3"
         style="fill:#e38540;fill-opacity:1;fill-rule:nonzero;stroke:none"
         id="path222" /><path
         d="m 26137.2,10281.3 c -544.7,-190.4 -484.3,-764.2 -985.5,-1610.4 -259.5,-438 -500.4,-431.4 -500.4,-431.4 0,0 -608.4,-4.9 -1344.2,85.1 -460.8,56.3 -490.1,-80.9 -169.6,-195.4 646.3,-231.1 1317.1,-479.9 1857.9,-419.8 540.9,60.1 1465.9,1440 1513.5,1799.2 66,496.8 -97.4,868.7 -371.7,772.7"
         style="fill:#f09959;fill-opacity:1;fill-rule:nonzero;stroke:none"
         id="path224" /><path
         d="m 25856.7,5466.8 c -33.9,0 -68.5,0.4 -104.1,1.3 -443.9,10.9 -746.1,72.3 -988.8,121.7 -283.5,57.6 -439.7,89.3 -621.4,2.5 -69.8,-33.3 -153.3,-3.8 -186.7,66 -33.3,69.7 -3.8,153.3 66,186.6 266.3,127.3 489.3,82 797.8,19.3 232,-47.2 520.8,-105.9 940,-116.2 469.2,-11.7 755.2,57.9 900.2,218.7 129.2,143.3 167,384 119,757.5 -16.4,127.9 -32.9,234.2 -47.4,328 -40.9,264.7 -68,439.6 -34.5,709.9 31.1,251 114.2,585.3 306.8,1233.7 22,74.1 99.8,116.3 174,94.3 74.1,-22 116.4,-99.9 94.4,-174 -358.8,-1208.2 -340.6,-1325.8 -264,-1821.1 14.8,-95.5 31.5,-203.7 48.4,-335.1 59.2,-460.6 -0.7,-772.3 -188.7,-980.7 -193.6,-214.7 -507.8,-312.4 -1011,-312.4"
         style="fill:#2e5b9a;fill-opacity:1;fill-rule:nonzero;stroke:none"
         id="path226" /><path
         d="m 20879.6,2956 c -574.2,-280.8 -883.3,-441.8 -1067.4,-426.4 -43.4,3.6 -79.4,8 -109.6,12.8 -204.8,-121.1 -531.7,-264.1 -163.9,-291.3 432.7,-32.1 641,144.2 913.4,224.3 272.5,80.1 609,128.2 480.8,336.6 -24.6,39.9 -42.4,88.9 -53.3,144"
         style="fill:#d54a41;fill-opacity:1;fill-rule:nonzero;stroke:none"
         id="path228" /><path
         d="m 25274.4,3455.7 c -14.1,-454.6 -76.6,-905.1 -354.6,-990.2 -73.7,-22.6 -140.9,-25.8 -200.3,-17.9 -43.8,-54.1 -97.1,-54.7 -168.8,-134.2 -108.1,-120.2 613,-36.1 697.1,0 84.1,36 120.2,745.1 210.3,925.4 74.1,148.1 -74.9,182.6 -183.7,216.9"
         style="fill:#d54a41;fill-opacity:1;fill-rule:nonzero;stroke:none"
         id="path230" /><path
         d="m 23062.6,7758.1 h -1824.1 c -54.5,0 -104,31.6 -127,81 l -737.1,1586.5 c -32.6,70.1 -2.2,153.3 67.9,185.9 70.2,32.6 153.4,2.2 186,-67.9 l 699.5,-1505.5 h 1734.8 c 77.4,0 140,-62.7 140,-140 0,-77.4 -62.6,-140 -140,-140"
         style="fill:#75a1de;fill-opacity:1;fill-rule:nonzero;stroke:none"
         id="path232" /><path
         d="m 23444.3,8308.7 c -368.6,5.3 -734.2,225 -915.8,193 -181.6,-32.1 -774.5,-443.4 -699.7,-459.4 74.7,-16 544.8,227.6 560.8,231.3 16.1,3.7 117.6,-168.7 368.6,-232.1 251.1,-63.3 1.8,188.2 780,-46.9 506.1,-152.8 -93.9,314.1 -93.9,314.1"
         style="fill:#f09959;fill-opacity:1;fill-rule:nonzero;stroke:none"
         id="path234" /><path
         d="m 26454.7,10868.1 54.2,-436.4 c 0,0 -476.9,-28.4 -714.3,-161.9 -237.3,-133.5 -587.6,-519.4 -587.6,-519.4 l 286.2,492.7 41.2,315.2 920.3,309.8"
         style="fill:#f2e5de;fill-opacity:1;fill-rule:nonzero;stroke:none"
         id="path236" /><path
         d="m 26251.7,10333.9 c -354.2,66.4 -518.1,-251.1 -747.8,-769.2 -229.7,-518.2 -621.8,-1147.5 -699.8,-1228.6 -77.9,-81.2 -1314.1,0 -1314.1,0 0,0 -37.4,-357.9 0,-400.7 37.4,-42.7 251.1,-37.3 251.1,-37.3 0,0 85.5,-68.3 165.6,-122.3 80.1,-54 758.5,-155.5 1073.7,-139.5 315.2,16 603.6,42.7 646.3,90.8 42.8,48.1 902.8,1372.9 956.2,1848.3 53.4,475.4 -150.4,724.6 -331.2,758.5"
         style="fill:#f2e5de;fill-opacity:1;fill-rule:nonzero;stroke:none"
         id="path238" /><path
         d="m 25207,12513.3 c -670,-32 -564.9,-1040 -564.9,-1040 0,0 174,-53.7 538.6,6.4 -28,108.2 -16,384.6 -16,384.6 0,0 42.3,-224.3 96.1,-360.5 77.1,-35.4 164.3,-4.1 312.5,31.8 76.2,-320.3 291.3,-455.6 438.5,-501.9 162.8,-51.2 335,-112.2 527.3,-16 192.3,96.1 86.6,1079 -15.6,1276.6 -153.2,296.7 -408,562.3 -848.7,422 -221,-70.3 -467.8,-203 -467.8,-203"
         style="fill:#303c60;fill-opacity:1;fill-rule:nonzero;stroke:none"
         id="path240" /><path
         d="m 26372.2,11316.3 273.9,-400.1 c 0,0 -303.6,-758.6 579.4,-1102.2 691.5,-269.2 610,-743.4 297.6,-1220.3 -312.5,-476.9 186.9,-893.4 186.9,-893.4 0,0 76.2,528.3 748.1,628 916.1,136 1175.5,1365.9 491.2,1981 -566.2,508.9 -738.5,87.4 -1121.8,544.1 -383.2,456.7 -1106.8,148.2 -1106.8,148.2 l -265.2,386.8 -83.3,-72.1"
         style="fill:#303c60;fill-opacity:1;fill-rule:nonzero;stroke:none"
         id="path242" /><path
         d="m 29264.5,9070.2 c -4,0 -8,1 -11.7,3 -11.8,6.5 -16.1,21.3 -9.7,33.1 230.4,421 42.4,931 -52.1,1069.2 -10.1,14.6 -19.6,29.4 -29.6,45.2 -92.9,144.9 -208.5,325.4 -825.4,436.4 -148.5,26.8 -268.8,115.1 -396.1,208.6 -263.1,193.1 -561.2,411.9 -1209,113.8 -12.2,-5.6 -26.7,-0.3 -32.3,11.9 -5.6,12.3 -0.3,26.7 11.9,32.4 673.8,310.1 984.3,82.2 1258.2,-118.9 122.7,-90 238.5,-175.1 376,-199.8 637.7,-114.8 759.7,-305.2 857.7,-458.2 9.9,-15.3 19.2,-29.9 28.8,-43.9 99,-144.8 295.9,-679.1 54.7,-1120.1 -4.5,-8.1 -12.8,-12.7 -21.4,-12.7"
         style="fill:#303c60;fill-opacity:1;fill-rule:nonzero;stroke:none"
         id="path244" /><path
         d="m 26225.9,10906.3 c -43.8,0 -91.3,3.8 -142.3,11.4 -234.4,35.2 -548.9,168.4 -573.5,916.4 -0.5,13.5 10.1,24.7 23.5,25.2 13.7,0.2 24.7,-10.1 25.2,-23.6 10.1,-308.3 71.3,-536.5 181.8,-678 83.9,-107.6 195.2,-168.6 350.2,-191.8 217,-32.5 360.8,7.6 427.4,119.1 6.9,11.5 21.9,15.3 33.4,8.4 11.5,-6.9 15.3,-21.9 8.4,-33.4 -61.1,-102.3 -173.2,-153.7 -334.1,-153.7"
         style="fill:#303c60;fill-opacity:1;fill-rule:nonzero;stroke:none"
         id="path246" /><path
         d="m 17113.3,2247.2 h 180 l 700.3,5353 h -396 l -484.3,-5353"
         style="fill:#2e5b9a;fill-opacity:1;fill-rule:nonzero;stroke:none"
         id="path248" /><path
         d="m 23221.8,2247.2 h -180 l -700.3,5353 h 396.1 l 484.2,-5353"
         style="fill:#2e5b9a;fill-opacity:1;fill-rule:nonzero;stroke:none"
         id="path250" /><path
         d="m 30281.4,6765.7 c 311.4,-284.4 176,-568.7 -54.2,-1096.9 -230.2,-528.1 -270.8,-2478 -270.8,-2478 l 189.6,27.1 c 0,0 -27.1,2004.1 230.2,2545.7 257.2,541.7 365.6,812.5 595.8,636.5 230.2,-176.1 -690.6,365.6 -690.6,365.6"
         style="fill:#74b570;fill-opacity:1;fill-rule:nonzero;stroke:none"
         id="path252" /><path
         d="m 30110.3,7133.9 c 37.8,168.5 262.4,350.9 562.8,505.5 -44.7,-248.5 -187.9,-654.9 -39.7,-738.3 199.9,-112.4 19.5,455 96.6,766.9 282.1,137.7 621.4,250.3 933.8,306.3 -0.4,-1.2 -0.8,-2.2 -1.2,-3.4 -176.1,-446.9 -406.3,-622.9 -311.5,-690.6 71.3,-51 303.6,465.2 610.3,729.8 230.3,12.3 425,-18.9 540.3,-110.1 178.1,-141 297.6,-266.1 118.5,-695.4 -102.3,-73.2 -234.9,-125.6 -388.9,-141 -406.2,-40.6 -595.8,-54.2 -311.4,-189.6 139.2,-66.3 372.6,3.8 561.9,46.4 -61.4,-113.1 -136.9,-241.1 -228.6,-387 -58.1,-92.4 -122.2,-172.8 -190.3,-242.2 -130.9,-25.1 -245.1,-25.4 -305.5,0.5 -189.6,81.3 -677.1,338.6 -799,230.3 -119.2,-106.1 902.9,-173.2 832,-442.7 -495.4,-285.4 -1062.3,-149.6 -1162.5,112.5 -134.6,352 -631.5,434.8 -517.6,942.1"
         style="fill:#9cd499;fill-opacity:1;fill-rule:nonzero;stroke:none"
         id="path254" /><path
         d="m 31134.5,5208.4 c -541.7,406.3 -1096.9,27.1 -1381.2,-406.2 -284.4,-433.3 -81.3,-1408.3 -81.3,-1408.3 0,0 108.3,0 108.3,40.6 0,40.6 -297.9,1151 406.3,1652.1 440.5,313.4 758.3,162.5 798.9,13.5 40.6,-148.9 -176,-419.8 -176,-419.8 l 325,528.1"
         style="fill:#74b570;fill-opacity:1;fill-rule:nonzero;stroke:none"
         id="path256" /><path
         d="m 29888.7,6043.5 c 541.6,0 717.7,-839.6 568.7,-1327.1 -149,-487.4 -352.1,-1394.7 -352.1,-1394.7 l -135.4,135.4 c 0,0 514.6,1272.9 392.7,1841.6 -121.9,568.8 -419.8,663.6 -473.9,663.6 -54.2,0 0,81.2 0,81.2"
         style="fill:#9cd499;fill-opacity:1;fill-rule:nonzero;stroke:none"
         id="path258" /><path
         d="m 30343,4712.7 c 38.1,50.4 85.1,92.1 142.5,119.8 -7.5,-40.4 -16.8,-79.2 -28.1,-116.1 -67.9,-222.1 -147,-531.3 -213,-802.2 -6,34.7 -15.2,88.2 -29.5,170.6 -3.4,19.5 -6,40.7 -7.9,63.1 53.1,180.4 103.2,376.9 136,564.8"
         style="fill:#74b570;fill-opacity:1;fill-rule:nonzero;stroke:none"
         id="path260" /><path
         d="m 30491.1,4708.6 c 1029.1,433.3 486.9,1028 1394.2,635.3 63.9,-27.7 141.8,-97.5 219.7,-193.6 -80.8,-22.9 -178.6,-39.4 -287.4,-23.1 -270.9,40.6 -176.1,-176 270.8,-230.2 84.2,-10.2 152.6,-24.3 209.4,-44.2 212.9,-408.9 308.8,-946.9 -141.7,-1133.9 -88.8,-36.9 -198.5,-57.9 -320.7,-65.8 -139,110.5 34,749.9 -180.3,661.6 -205.8,-84.7 64.4,-548.1 27.4,-664.8 -203.1,3.7 -428,36.8 -642.9,90.1 -85,47.6 -149.9,111.5 -169.9,195.6 -67.7,284.3 379.1,460.4 392.7,704.1 12.4,224.1 -163.8,-493 -630.7,-598.5 -422.2,197.2 -621.7,464.8 -140.6,667.4"
         style="fill:#9cd499;fill-opacity:1;fill-rule:nonzero;stroke:none"
         id="path262" /><path
         d="m 29757.8,5474.8 c 108.3,230.2 -176.1,284.3 -162.5,108.3 12,-156 13.3,-535.2 -146.7,-638.4 -275.9,29.9 -651.3,141.1 -935,310.5 -3.6,22.9 -0.2,46.5 11.9,70.6 121.9,243.8 907.3,446.9 663.5,528.1 -194.1,64.7 -534.3,-317.2 -808.4,-509.6 -164.6,124.9 -274.9,273.8 -274.9,440 0,225 273.4,479.6 626.9,601.4 159.1,-16.1 306.8,-103.1 537.7,-233.9 341,-193.2 262.1,119.2 -60.3,304.6 278.3,-14.4 555.8,-133.3 760.5,-417.4 0,0 -19.4,-121.4 109.1,-309.3 350.7,-512.4 -54,-811.6 -537.7,-792.1 27.4,135 141,378.1 215.9,537.2"
         style="fill:#9cd499;fill-opacity:1;fill-rule:nonzero;stroke:none"
         id="path264" /><path
         d="m 31101.9,5231.4 c 264.8,-204.6 559,-443.9 920.1,-606.4 361.1,-162.5 288.9,-692.1 288.9,-692.1 0,0 54.1,457.4 -246.8,613.9 -300.9,156.5 -499.5,343 -728.2,379.2 -228.8,36.1 -355.1,72.2 -355.1,72.2 0,0 72.2,144.4 30,198.6 -42.1,54.2 91.1,34.6 91.1,34.6"
         style="fill:#74b570;fill-opacity:1;fill-rule:nonzero;stroke:none"
         id="path266" /><path
         d="m 32407.2,7634.4 c -969,-258.8 -1679.2,-878.8 -1811.6,-1029.2 -132.4,-150.5 -132.4,-192.6 -132.4,-192.6 l 102.3,-192.6 48.1,24 c 0,0 -78.2,162.6 126.4,373.2 352.9,363.3 782.4,650 1077.4,776.4 294.9,126.4 589.8,240.8 589.8,240.8"
         style="fill:#74b570;fill-opacity:1;fill-rule:nonzero;stroke:none"
         id="path268" /><path
         d="m 29732.4,2270.7 h 370.2 c 263.3,0 476.7,213.4 476.7,476.7 V 3598 h -1323.6 v -850.6 c 0,-263.3 213.5,-476.7 476.7,-476.7"
         style="fill:#75a1de;fill-opacity:1;fill-rule:nonzero;stroke:none"
         id="path270" /><path
         d="m 30579.3,3352.7 h -1323.6 v 93.2 h 1323.6 v -93.2"
         style="fill:#ffffff;fill-opacity:1;fill-rule:nonzero;stroke:none"
         id="path272" /><path
         d="m 30579.3,3221.2 h -1323.6 v 54.8 h 1323.6 v -54.8"
         style="fill:#ffffff;fill-opacity:1;fill-rule:nonzero;stroke:none"
         id="path274" /><path
         d="m 5588.8,3428.7 h 315.81 c 66.69,0 120.75,54 120.75,120.7 v 260.1 c 0,66.7 -54.06,120.7 -120.75,120.7 H 5588.8 c -66.69,0 -120.75,-54 -120.75,-120.7 v -260.1 c 0,-66.7 54.06,-120.7 120.75,-120.7"
         style="fill:#9ec8ff;fill-opacity:1;fill-rule:nonzero;stroke:none"
         id="path276" /><path
         d="m 4575.5,3428.7 h 315.81 c 66.69,0 120.75,54 120.75,120.7 v 260.1 c 0,66.7 -54.06,120.7 -120.75,120.7 H 4575.5 c -66.69,0 -120.75,-54 -120.75,-120.7 v -260.1 c 0,-66.7 54.06,-120.7 120.75,-120.7"
         style="fill:#9ec8ff;fill-opacity:1;fill-rule:nonzero;stroke:none"
         id="path278" /><path
         d="m 3562.2,3428.7 h 315.81 c 66.69,0 120.75,54 120.75,120.7 v 260.1 c 0,66.7 -54.06,120.7 -120.75,120.7 H 3562.2 c -66.69,0 -120.75,-54 -120.75,-120.7 v -260.1 c 0,-66.7 54.06,-120.7 120.75,-120.7"
         style="fill:#9ec8ff;fill-opacity:1;fill-rule:nonzero;stroke:none"
         id="path280" /><path
         d="m 32399.2,12775.8 v 315.8 c 0,66.7 -54,120.8 -120.7,120.8 h -260.1 c -66.7,0 -120.7,-54.1 -120.7,-120.8 v -315.8 c 0,-66.7 54,-120.7 120.7,-120.7 h 260.1 c 66.7,0 120.7,54 120.7,120.7"
         style="fill:#9ec8ff;fill-opacity:1;fill-rule:nonzero;stroke:none"
         id="path282" /><path
         d="m 32399.2,11762.5 v 315.8 c 0,66.7 -54,120.8 -120.7,120.8 h -260.1 c -66.7,0 -120.7,-54.1 -120.7,-120.8 v -315.8 c 0,-66.7 54,-120.7 120.7,-120.7 h 260.1 c 66.7,0 120.7,54 120.7,120.7"
         style="fill:#9ec8ff;fill-opacity:1;fill-rule:nonzero;stroke:none"
         id="path284" /><path
         d="m 32399.2,10749.2 v 315.8 c 0,66.7 -54,120.8 -120.7,120.8 h -260.1 c -66.7,0 -120.7,-54.1 -120.7,-120.8 v -315.8 c 0,-66.7 54,-120.7 120.7,-120.7 h 260.1 c 66.7,0 120.7,54 120.7,120.7"
         style="fill:#9ec8ff;fill-opacity:1;fill-rule:nonzero;stroke:none"
         id="path286" /></g></g></svg>
