<?xml version="1.0" encoding="UTF-8" standalone="no"?>
<svg
   xmlns:dc="http://purl.org/dc/elements/1.1/"
   xmlns:cc="http://creativecommons.org/ns#"
   xmlns:rdf="http://www.w3.org/1999/02/22-rdf-syntax-ns#"
   xmlns:svg="http://www.w3.org/2000/svg"
   xmlns="http://www.w3.org/2000/svg"
   xmlns:sodipodi="http://sodipodi.sourceforge.net/DTD/sodipodi-0.dtd"
   xmlns:inkscape="http://www.inkscape.org/namespaces/inkscape"
   version="1.1"
   id="svg2"
   xml:space="preserve"
   width="4196"
   height="2666.6667"
   viewBox="0 0 4196 2666.6667"
   sodipodi:docname="8401.eps"><metadata
     id="metadata8"><rdf:RDF><cc:Work
         rdf:about=""><dc:format>image/svg+xml</dc:format><dc:type
           rdf:resource="http://purl.org/dc/dcmitype/StillImage" /></cc:Work></rdf:RDF></metadata><defs
     id="defs6" /><sodipodi:namedview
     pagecolor="#ffffff"
     bordercolor="#666666"
     borderopacity="1"
     objecttolerance="10"
     gridtolerance="10"
     guidetolerance="10"
     inkscape:pageopacity="0"
     inkscape:pageshadow="2"
     inkscape:window-width="640"
     inkscape:window-height="480"
     id="namedview4" /><g
     id="g10"
     inkscape:groupmode="layer"
     inkscape:label="ink_ext_XXXXXX"
     transform="matrix(1.3333333,0,0,-1.3333333,0,2666.6667)"><g
       id="g12"
       transform="scale(0.1)"><path
         d="M 0,0 H 31470 V 20000 H 0 Z"
         style="fill:#ffffff;fill-opacity:1;fill-rule:nonzero;stroke:none"
         id="path14" /><path
         d="m 28447.2,775.602 h -13368 c -63,0 -125.3,3.097 -186.7,9.097 H 6745.92 c -966.9,0 -1750.73,808.901 -1750.73,1806.701 v 412.8 c 0,1195.8 -939.33,2165.1 -2098.04,2165.1 h -0.01 c -1187.8,0 -2150.722,993.8 -2150.722,2219.5 v 0.1 c 0,1225.8 962.922,2219.5 2150.722,2219.5 h 352.34 c 1158.73,0 2098.05,969.3 2098.05,2165.1 v 0 c 0,997.8 783.83,1806.7 1750.74,1806.7 H 9416.75 C 8836.1,13937 8442.66,14626 8442.66,15417.5 v 0.1 c 0,1157.8 841.75,2096.5 1880.14,2096.5 h 13198.5 c 932.8,0 1689.1,-843.4 1689.1,-1883.6 0,-1246.7 906.3,-2257.3 2024.3,-2257.3 h 339.9 c 1146,0 2075.1,-1035.9 2075.1,-2313.9 v 0 c 0,-1277.9 -929.1,-2313.9 -2075.1,-2313.9 -1118,0 -2024.2,-1010.6 -2024.2,-2257.2 v -430.4 c 0,-585.6 -239.7,-1108.8 -615.7,-1454.2 h 3512.5 c 1057,0 1913.9,-857 1913.9,-1914 0,-1057.1 -856.9,-1913.998 -1913.9,-1913.998 M 5770.76,5965.7 c -130.62,0 -236.48,-103.8 -236.48,-231.9 v -147.2 c 0,-128.1 105.86,-231.9 236.48,-231.9 l 1622.05,0.6 h 970.25 v 37.2 h -6.13 c 0,0 -94.65,42.7 -94.65,268.8 0,179.5 94.65,266.6 94.65,266.6 v 0 0 h -3.3 c 1.96,0.1 3.01,0.1 3.01,0.1 l 6.42,0.1 v 37 h -85.6 c -3.43,0.4 -6.91,0.6 -10.44,0.6 h -358.55 c 130.66,0 236.57,82.3 236.57,183.9 v 116.8 c 0,95.8 -94.04,174.4 -214.21,183.2 h 452.61 v 29.7 h -5.42 c 0,0 -83.62,34.1 -83.62,214.8 0,143.4 83.62,212.9 83.62,212.9 v 0 0 h -2.99 c 1.79,0.1 2.74,0.1 2.74,0.1 l 5.67,0.1 v 29.6 h -75.61 c -3.03,0.3 -6.12,0.4 -9.24,0.4 H 6093.03 c -115.39,0 -208.94,-82.9 -208.94,-185.2 v -117.6 c 0,-95 80.63,-173.3 184.51,-184 h -657.38 c -3.55,0 -7.05,-0.1 -10.49,-0.4 h -85.59 v -29.4 l 6.42,-0.1 c 0,0 1.09,0 3.14,-0.1 h -3.41 c 0,0 94.68,-69 94.68,-211.5 0,-179.4 -94.68,-213.3 -94.68,-213.3 h -6.15 v -29.5 h 947.11 l 1646.22,-0.4 H 5770.76 M 23120.4,16174.3 c -31.4,0 -63.1,-0.9 -94.9,-2.9 -823,-51.8 -1448.2,-762.3 -1396.6,-1586.9 49.7,-792.8 706.7,-1402.5 1488.7,-1402.5 31.4,0 63.1,1 94.9,3 822.9,51.7 1448.2,762.2 1396.6,1586.9 -49.7,792.8 -706.8,1402.4 -1488.7,1402.4"
         style="fill:#dce9f8;fill-opacity:1;fill-rule:nonzero;stroke:none"
         id="path16" /><path
         d="m 9206.42,6677.5 c -40.35,0.1 -73.01,22.2 -72.94,49.3 0.06,27.1 32.83,49 73.19,49 40.35,-0.1 73,-22.2 72.93,-49.3 -0.06,-27.2 -32.83,-49.1 -73.18,-49 z m 0.46,184.6 c 28.6,-0.1 51.76,-14.4 51.71,-32 -0.04,-17.6 -23.26,-31.8 -51.87,-31.7 -28.61,0.1 -51.76,14.4 -51.72,32 0.04,17.6 23.27,31.8 51.88,31.7 z m 0.09,38.9 c -53.3,0.1 -96.66,-61.4 -96.84,-137.3 -0.19,-76 42.86,-137.7 96.16,-137.8 53.3,-0.1 96.66,61.3 96.85,137.3 0.19,76 -42.87,137.6 -96.17,137.8"
         style="fill:#4a6cbd;fill-opacity:1;fill-rule:nonzero;stroke:none"
         id="path18" /><path
         d="m 8987.87,6597.3 c -20.26,-43.7 -30.88,-91.2 -31,-139.4 L 8954.4,5451 c -0.15,-60.8 49.53,-110.2 110.96,-110.4 l 575.77,-1.4 c 61.43,-0.1 111.35,49 111.5,109.8 l 2.47,1007 c 0.12,48.1 -10.27,95.7 -30.31,139.5 l -736.92,1.8"
         style="fill:#663199;fill-opacity:1;fill-rule:nonzero;stroke:none"
         id="path20" /><path
         d="m 8987.87,6597.3 c -20.26,-43.7 -30.88,-91.2 -31,-139.4 L 8954.4,5451 c -0.15,-60.8 49.53,-110.2 110.96,-110.4 l 575.77,-1.4 c 61.43,-0.1 111.35,49 111.5,109.8 l 2.47,1007 c 0.12,48.1 -10.27,95.7 -30.31,139.5 l -736.92,1.8"
         style="fill:#663199;fill-opacity:1;fill-rule:nonzero;stroke:none"
         id="path22" /><path
         d="m 9755.16,6456 -2.47,-1007 c -0.15,-60.8 -50.13,-110 -111.5,-109.8 l -575.77,1.4 c -61.51,0.1 -111.11,49.6 -110.97,110.4 l 2.48,1006.9 c 0.12,48.1 10.7,95.6 30.96,139.4 l 736.86,-1.9 c 20.04,-43.8 30.53,-91.4 30.41,-139.4"
         style="fill:#f35f52;fill-opacity:1;fill-rule:nonzero;stroke:none"
         id="path24" /><path
         d="m 9107.07,5450.6 2.47,1006.9 c 0.11,48.2 10.73,95.7 30.99,139.4 l -152.66,0.4 c -20.26,-43.7 -30.88,-91.2 -31,-139.4 L 8954.4,5451 c -0.15,-60.8 49.53,-110.2 110.96,-110.4 l 152.66,-0.3 c -61.43,0.1 -111.11,49.5 -110.95,110.3"
         style="fill:#f47374;fill-opacity:1;fill-rule:nonzero;stroke:none"
         id="path26" /><path
         d="m 9755.16,6456 -2.47,-1007 c -0.15,-60.8 -50.13,-110 -111.5,-109.8 l -235.41,0.5 c 62.02,-0.1 112.53,49.1 112.67,109.9 l 2.47,1007 c 0.12,48 -10.49,95.6 -30.67,139.4 l 234.5,-0.6 c 20.04,-43.8 30.53,-91.4 30.41,-139.4"
         style="fill:#b14a40;fill-opacity:1;fill-rule:nonzero;stroke:none"
         id="path28" /><path
         d="m 9724.79,6595.5 -736.99,1.8 c 0.08,32.2 26.51,58.2 59.03,58.1 l 619.21,-1.5 c 32.52,-0.1 58.83,-26.2 58.75,-58.4"
         style="fill:#1b375a;fill-opacity:1;fill-rule:nonzero;stroke:none"
         id="path30" /><path
         d="m 9753.17,5647.8 -798.23,2 -0.31,-125.1 798.24,-2 0.3,125.1"
         style="fill:#375491;fill-opacity:1;fill-rule:nonzero;stroke:none"
         id="path32" /><path
         d="m 8262.57,6921.5 h 88.05 c -14.41,9.8 -32.43,15.7 -52.03,15.7 H 6093.03 c -115.39,0 -208.94,-82.9 -208.94,-185.2 v -117.6 c 0,-102.3 93.55,-185.2 208.94,-185.2 l 2180.89,0.6 -11.35,471.7"
         style="fill:#82a9de;fill-opacity:1;fill-rule:nonzero;stroke:none"
         id="path34" /><path
         d="m 7010.43,6936.8 c -110.35,0 -199.81,-79.3 -199.81,-177.1 v -133 c 0,-97.8 89.46,-177.1 199.81,-177.1 h 1373.01 v 29.7 h -5.67 l -349.05,29.3 -70.55,245.4 c 0,0 136.17,135.5 145.06,139 8.87,3.5 274.54,14.1 274.54,14.1 l 5.67,0.1 v 29.6 H 7010.43"
         style="fill:#4a6cbd;fill-opacity:1;fill-rule:nonzero;stroke:none"
         id="path36" /><path
         d="m 8294.4,6694.1 c 0,143.4 83.62,212.9 83.62,212.9 H 7038.55 c -101.36,0 -183.53,-72.8 -183.53,-162.6 V 6642 c 0,-89.8 82.17,-162.7 183.53,-162.7 h 1339.47 c 0,0 -83.62,34.1 -83.62,214.8"
         style="fill:#f7d99b;fill-opacity:1;fill-rule:nonzero;stroke:none"
         id="path38" /><path
         d="m 6855.07,6638.2 c 0,0.1 0,0.1 0,0.1 0,0 0,0 0,-0.1 m -0.02,1 c 0,0.2 -0.01,0.3 -0.01,0.5 0,-0.2 0.01,-0.3 0.01,-0.5 m -0.01,0.8 c -0.01,0.3 -0.01,0.6 -0.01,0.9 0,-0.3 0,-0.6 0.01,-0.9 m -0.01,1.1 c -0.01,0.3 -0.01,0.6 -0.01,0.9 v 0 c 0,-0.3 0,-0.6 0.01,-0.9"
         style="fill:#4366ba;fill-opacity:1;fill-rule:nonzero;stroke:none"
         id="path40" /><path
         d="m 6860.37,6603 c -3.15,11.3 -4.98,23.1 -5.3,35.2 0,0.1 0,0.1 0,0.1 -0.01,0.3 -0.01,0.6 -0.02,0.9 0,0.2 -0.01,0.3 -0.01,0.5 0,0.1 0,0.2 0,0.3 -0.01,0.3 -0.01,0.6 -0.01,0.9 0,0.1 0,0.1 0,0.2 -0.01,0.3 -0.01,0.6 -0.01,0.9 v 102.4 c 0,89.8 82.17,162.6 183.53,162.6 h 1339.47 v 0 c 0,0 -836.24,-10.5 -1221.06,-81.3 C 6992.13,6795.3 6905.54,6701 6860.37,6603"
         style="fill:#cacb9a;fill-opacity:1;fill-rule:nonzero;stroke:none"
         id="path42" /><path
         d="m 8226.26,5945.9 h 99.64 c -16.3,12.4 -36.69,19.8 -58.88,19.8 H 5770.76 c -130.62,0 -236.48,-103.8 -236.48,-231.9 v -147.2 c 0,-128.1 105.86,-231.9 236.48,-231.9 l 2468.34,0.9 -12.84,590.3"
         style="fill:#59c69f;fill-opacity:1;fill-rule:nonzero;stroke:none"
         id="path44" /><path
         d="m 6809.07,5965.1 c -124.89,0 -226.14,-99.3 -226.14,-221.7 V 5577 c 0,-122.4 101.25,-221.7 226.14,-221.7 h 1553.99 v 37.2 h -6.42 l -395.06,36.7 -79.85,307.1 c 0,0 154.12,169.7 164.17,174.1 10.05,4.3 310.74,17.6 310.74,17.6 l 6.42,0.1 v 37 H 6809.07"
         style="fill:#43927a;fill-opacity:1;fill-rule:nonzero;stroke:none"
         id="path46" /><path
         d="m 8262.28,5661.3 c 0,179.5 94.65,266.6 94.65,266.6 H 6840.9 c -114.72,0 -207.72,-91.2 -207.72,-203.7 v -128 c 0,-112.5 93,-203.7 207.72,-203.7 h 1516.03 c 0,0 -94.65,42.7 -94.65,268.8"
         style="fill:#f7d99b;fill-opacity:1;fill-rule:nonzero;stroke:none"
         id="path48" /><path
         d="m 6633.19,5593.8 v 0 0 m 0,0.7 v 0.1 -0.1 m -0.01,0.7 c 0,0.1 0,0.2 0,0.2 0,0 0,-0.1 0,-0.2"
         style="fill:#3c8777;fill-opacity:1;fill-rule:nonzero;stroke:none"
         id="path50" /><path
         d="m 6639.24,5547.3 c -3.75,14.9 -5.86,30.5 -6.05,46.5 v 0 c 0,0.2 0,0.5 0,0.7 v 0.1 c -0.01,0.2 -0.01,0.4 -0.01,0.6 0,0.1 0,0.2 0,0.2 0,0.3 0,0.5 0,0.8 v 0 128 c 0,112.5 93,203.7 207.72,203.7 h 1516.03 v 0 c 0,0 -946.47,-13.2 -1382.01,-101.8 -186.56,-38 -284.55,-156.1 -335.68,-278.8"
         style="fill:#cacb9a;fill-opacity:1;fill-rule:nonzero;stroke:none"
         id="path52" /><path
         d="m 5452,6434.8 h -99.68 c 16.3,9.7 36.71,15.6 58.9,15.6 h 2497.25 c 130.66,0 236.57,-82.4 236.57,-184 v -116.8 c 0,-101.6 -105.91,-183.9 -236.57,-183.9 l -2469.32,0.6 12.85,468.5"
         style="fill:#f35f52;fill-opacity:1;fill-rule:nonzero;stroke:none"
         id="path54" /><path
         d="m 6869.74,6450 c 124.95,0 226.24,-78.8 226.24,-175.9 V 6142 c 0,-97.2 -101.29,-175.9 -226.24,-175.9 h -1554.6 v 29.5 h 6.42 l 395.22,29.1 79.88,243.7 c 0,0 -154.18,134.7 -164.23,138.1 -10.06,3.5 -310.87,14 -310.87,14 l -6.42,0.1 v 29.4 h 1554.6"
         style="fill:#b14a40;fill-opacity:1;fill-rule:nonzero;stroke:none"
         id="path56" /><path
         d="m 5415.97,6208.9 c 0,142.5 -94.68,211.5 -94.68,211.5 H 6837.9 c 114.76,0 207.81,-72.3 207.81,-161.6 v -101.6 c 0,-89.2 -93.05,-161.6 -207.81,-161.6 H 5321.29 c 0,0 94.68,33.9 94.68,213.3"
         style="fill:#f7d99b;fill-opacity:1;fill-rule:nonzero;stroke:none"
         id="path58" /><path
         d="m 7045.69,6155.3 c 0,0 0,0 0,0.1 0,-0.1 0,-0.1 0,-0.1 m 0.01,0.6 v 0.1 -0.1 m 0,0.6 v 0.1 -0.1"
         style="fill:#91433c;fill-opacity:1;fill-rule:nonzero;stroke:none"
         id="path60" /><path
         d="m 7039.64,6118.4 c -51.15,97.4 -149.18,191.1 -335.8,221.2 -435.71,70.4 -1382.55,80.8 -1382.55,80.8 H 6837.9 c 114.76,0 207.81,-72.3 207.81,-161.6 v -101.6 0 c 0,-0.2 -0.01,-0.4 -0.01,-0.6 v -0.1 c 0,-0.2 0,-0.3 0,-0.5 v -0.1 c 0,-0.2 -0.01,-0.4 -0.01,-0.5 0,-0.1 0,-0.1 0,-0.1 -0.19,-12.7 -2.3,-25 -6.05,-36.9"
         style="fill:#cacb9a;fill-opacity:1;fill-rule:nonzero;stroke:none"
         id="path62" /><path
         d="m 13604,809.398 -234.1,44.403 1011.6,5365.799 234.2,-44.4 L 13604,809.398"
         style="fill:#1e4150;fill-opacity:1;fill-rule:nonzero;stroke:none"
         id="path64" /><path
         d="m 21368.9,785 h 281.6 L 20601.1,6219.6 20367,6175.2 21368.9,785"
         style="fill:#1e4150;fill-opacity:1;fill-rule:nonzero;stroke:none"
         id="path66" /><path
         d="m 16213.2,785 h 281.6 l -1049.4,5434.6 -234.2,-44.4 1002,-5390.2"
         style="fill:#1e4150;fill-opacity:1;fill-rule:nonzero;stroke:none"
         id="path68" /><path
         d="m 18803.1,785 -228.7,-2.699 1006.2,5412.899 234.1,-44.4 L 18803.1,785"
         style="fill:#1e4150;fill-opacity:1;fill-rule:nonzero;stroke:none"
         id="path70" /><path
         d="m 17781.6,13538.8 c 927.1,-99.3 2126.9,-204.1 3331.3,-2248 1316.4,-2234 623.5,-5570.9 -415.5,-6498.2 -1039,-927.3 -4432.5,-2072.2 -7285.1,-358.1 0,0 -1722.4,1038.7 -838.4,2762.7 1360.3,2652.9 1168.1,3206.2 1776.3,4245.9 608.2,1039.6 1463.5,2306.4 3431.4,2095.7"
         style="fill:#f7d99b;fill-opacity:1;fill-rule:nonzero;stroke:none"
         id="path72" /><path
         d="m 21112.9,11290.8 c -822.1,1395 -1641.9,1886.6 -2374.4,2089.8 283.3,-293.2 570.5,-670.4 858.1,-1158.3 1316.4,-2234 623.4,-5570.9 -415.6,-6498.2 -921.4,-822.3 -3694.4,-1815.5 -6299.8,-834.4 267.9,-296.5 531.1,-455.2 531.1,-455.2 2852.6,-1714.1 6246.1,-569.2 7285.1,358.1 1039,927.3 1731.9,4264.2 415.5,6498.2"
         style="fill:#f3c267;fill-opacity:1;fill-rule:nonzero;stroke:none"
         id="path74" /><path
         d="m 4919.47,11955.4 c -26.3,-207.3 189.52,-371.7 381.45,-358.8 212.19,14.4 392.17,188.4 423.2,396.9 33.59,225.7 -102.02,406.2 -311.81,422.7 -204.22,16.1 -334.86,-165.7 -275.87,-349.1 42.28,-131.5 162.33,-180.5 222.8,-144.2 47.13,28.2 44.28,99.5 -12.78,112.1 -22.87,5.1 -46.44,-7.7 -58.59,-25.2 -49.95,19.8 -97.48,110.8 -65.23,208.9 41.21,125.5 199.77,132.6 298.25,74.1 125.35,-74.4 145.05,-234.7 99.07,-362.5 -48.27,-134.1 -180.01,-239.8 -323.44,-250 -162.47,-11.5 -305.45,113 -318.43,274.9 -3.07,38.2 -53.92,37.3 -58.62,0.2"
         style="fill:#f47374;fill-opacity:1;fill-rule:nonzero;stroke:none"
         id="path76" /><path
         d="m 19204.6,18872.9 c -959.5,5.7 -1740.2,-467.5 -1743.7,-1056.9 -1.8,-294.7 191.1,-562.7 504.4,-757.7 l -394.6,-866.8 823.5,670.8 c 238.6,-77.6 509.9,-122.2 797.7,-123.9 959.6,-5.7 1740.3,467.5 1743.8,1057 3.5,589.4 -771.6,1071.8 -1731.1,1077.5"
         style="fill:#f7d99b;fill-opacity:1;fill-rule:nonzero;stroke:none"
         id="path78" /><path
         d="m 18539.9,17704.1 c 85.2,-323.4 416.4,-516.5 739.7,-431.2 323.4,85.3 516.4,416.5 431.2,739.9 -85.3,323.4 -416.5,516.5 -739.8,431.2 -323.3,-85.3 -516.4,-416.6 -431.1,-739.9"
         style="fill:#f3c267;fill-opacity:1;fill-rule:nonzero;stroke:none"
         id="path80" /><path
         d="m 19462.8,17848.2 c 45.5,-172.9 -57.7,-350 -230.5,-395.6 -172.9,-45.6 -350,57.6 -395.5,230.5 l 626,165.1"
         style="fill:#ebebe9;fill-opacity:1;fill-rule:nonzero;stroke:none"
         id="path82" /><path
         d="m 9300.18,10504.2 2649.22,19.9 c 60.5,0.5 109.1,49.9 108.7,110.4 l -13.3,1771.1 c -0.5,60.5 -49.9,109.2 -110.4,108.7 l -2649.16,-19.9 c -60.5,-0.4 -109.18,-49.8 -108.72,-110.3 l 13.29,-1771.2 c 0.46,-60.5 49.87,-109.1 110.37,-108.7"
         style="fill:#f35f52;fill-opacity:1;fill-rule:nonzero;stroke:none"
         id="path84" /><path
         d="m 11963.6,11529.1 855.3,-871.6 -1055.2,196.9 z"
         style="fill:#f35f52;fill-opacity:1;fill-rule:nonzero;stroke:none"
         id="path86" /><path
         d="m 11191.9,11652 -257.5,4.6 c 0,0 -324.3,242.2 -334.3,327.8 -9.9,85.6 43.3,266.8 -7,289.6 -50.3,22.7 -156.9,40.7 -224.2,-72.7 -48.9,-82.3 -8.2,-382.6 -38.4,-402.7 -19,-12.6 -167,-14.1 -275.1,-13.5 -71.16,0.4 -136.53,-38.7 -169.86,-101.5 l -0.11,-0.2 c -22.53,-42.5 -12.28,-94.9 24.61,-125.7 l 57.41,-48 -45.18,-60.1 c -33.64,-44.7 -24.89,-108.1 19.6,-142.1 l 45.32,-34.5 -31.03,-35.4 c -39.98,-45.5 -31.55,-115.7 18.07,-150.4 l 40.27,-28.3 -6,-11.1 c -25.17,-46.4 -10.74,-104.3 33.2,-133.4 l 40.5,-26.8 685.6,-12.1 c 64.2,-1.2 128,10.8 187.4,35.2 l 241.9,35.6 c 26,3.8 45.2,26.1 45.3,52.4 l 1.6,600.1 c 0,29 -23.2,52.6 -52.1,53.2"
         style="fill:#ffffff;fill-opacity:1;fill-rule:nonzero;stroke:none"
         id="path88" /><path
         d="m 14805.1,10143.3 -238.3,-714.9 726.3,285.7 z"
         style="fill:#f68480;fill-opacity:1;fill-rule:nonzero;stroke:none"
         id="path90" /><path
         d="m 15553.8,12270.6 c -48.4,-2 -181.1,-46.2 -375.1,-411.6 -247.7,-466.6 -609.8,-1876.2 -609.8,-1876.2 l 1080.8,-401.1 138.8,294.2 228.7,2265 c 0,0 -450,130.3 -463.4,129.7"
         style="fill:#14293f;fill-opacity:1;fill-rule:nonzero;stroke:none"
         id="path92" /><path
         d="m 16982.5,12473.8 c -309.1,-0.4 -1073.8,-90.3 -1428.7,-203.3 0,0 -260.7,-2233.4 234.7,-3930.5 111,-379.9 -91.7,-1574.9 -91.7,-1574.9 l 3202.6,42.1 c 0,0 -379.4,2888.9 -236.5,3355.5 142.9,466.6 146.3,2092.8 146.3,2092.8 0,0 -21.9,3.4 -719.5,123.6 -325.4,56 -777.2,95.1 -1107.2,94.7"
         style="fill:#1b3659;fill-opacity:1;fill-rule:nonzero;stroke:none"
         id="path94" /><path
         d="m 17355.7,2619.8 c 0,0 -70.9,-815 -201.1,-1040.7 -130.3,-225.7 6.8,-609.299 13.7,-661.998 6.8,-52.602 274.2,-127.899 699.3,-82.704 425.1,45.102 418.2,142.903 383.9,300.902 -34.2,158 -260.5,361.1 -274.2,511.5 -13.7,150.5 130.3,692.1 130.3,692.1 l -751.9,280.9"
         style="fill:#f68d82;fill-opacity:1;fill-rule:nonzero;stroke:none"
         id="path96" /><path
         d="m 16058.1,7437.8 c 0,0 -2210.7,122.3 -2704.4,-175.6 -493.6,-298 89.3,-909.9 89.3,-909.9 0,0 1799.8,-779.8 4812.9,-953.1 713.5,-41.1 775,1854.1 641.6,2010.9 -133.4,156.8 -2839.4,27.7 -2839.4,27.7"
         style="fill:#38816a;fill-opacity:1;fill-rule:nonzero;stroke:none"
         id="path98" /><path
         d="m 17920.6,771.102 c 437.7,46.5 383.6,260.798 348.3,423.498 -22.1,101.8 -147.7,221.9 -222.5,335.5 -39.1,-31.1 -102.8,-85.9 -292.9,-141.9 -197.4,-58.1 -468,56.9 -640.4,129 -61.4,-228 -64.2,-518.7 -58.5,-562.802 7.1,-54.199 428.3,-229.796 866,-183.296"
         style="fill:#375491;fill-opacity:1;fill-rule:nonzero;stroke:none"
         id="path100" /><path
         d="m 17679,5861.6 c -88.3,-666.1 -525.6,-3982.1 -525.6,-3982.1 l 1014.7,-125.3 c 0,0 1247.8,4328 1183.8,4990 -64,662 -531.1,717.7 -531.1,717.7 0,0 -908,162.9 -1141.8,-1600.3"
         style="fill:#43927a;fill-opacity:1;fill-rule:nonzero;stroke:none"
         id="path102" /><path
         d="m 16706.9,15291.6 c 0,0 337.2,355.4 608.4,-77 0,0 208.8,117.3 355.4,-91.6 0,0 377.5,113.6 469.1,-450.7 0,0 194.2,36.6 219.8,-194.3 25.7,-230.8 -91.6,-384.7 -91.6,-384.7 0,0 109.1,-81.9 59.6,-294.1 -42.2,-180.5 -191.5,-208 -191.5,-208 0,0 -40.3,-304.1 -172.2,-395.8 -131.9,-91.6 -311.5,-47.6 -311.5,-47.6 0,0 -47.6,-164.9 -201.6,-150.2 -153.9,14.6 -344.4,161.2 -516.7,95.2 -172.2,-65.9 -619.3,3.7 -619.3,3.7 0,0 -502,223.5 -351.8,736.6 0,0 -263.8,238.2 -32.9,524 0,0 -168.6,447.1 164.9,710.9 333.4,263.9 611.9,223.6 611.9,223.6"
         style="fill:#1b3659;fill-opacity:1;fill-rule:nonzero;stroke:none"
         id="path104" /><path
         d="m 16763.9,12878.3 -61,-452.8 c 0,0 -136.7,-652.3 39.1,-778 175.9,-125.8 748,796.6 748,796.6 l -60.4,1147.3 -665.7,-713.1"
         style="fill:#f68d82;fill-opacity:1;fill-rule:nonzero;stroke:none"
         id="path106" /><path
         d="m 17449.1,13219.6 c -145.3,-391.3 -491.3,-631.9 -736.9,-725.2 l 51.7,383.9 665.7,713.1 19.5,-371.8"
         style="fill:#f35f52;fill-opacity:1;fill-rule:nonzero;stroke:none"
         id="path108" /><path
         d="m 17023.1,14796.7 c -356.9,122.9 -737.4,-114.2 -791.8,-482.1 -23.7,-160 -45.1,-361.1 -49.1,-580.9 -9.6,-528.9 264.1,-1043.5 504.3,-1043.5 240.1,0 903.8,342.3 927.8,1093 14.8,463.5 -216.6,884.6 -591.2,1013.5"
         style="fill:#f68d82;fill-opacity:1;fill-rule:nonzero;stroke:none"
         id="path110" /><path
         d="m 17437.3,13723.9 c 0,-116.7 77.4,-211.2 172.8,-211.2 95.3,0 172.7,94.5 172.7,211.2 0,116.6 -77.4,211.2 -172.7,211.2 -95.4,0 -172.8,-94.6 -172.8,-211.2"
         style="fill:#f68d82;fill-opacity:1;fill-rule:nonzero;stroke:none"
         id="path112" /><path
         d="m 15982.8,15059.8 c -248,-196.5 -335,-495 -194.2,-666.8 140.9,-171.8 456.1,-151.8 704.1,44.7 248.1,196.5 335,495.1 194.2,666.9 -140.8,171.8 -456.1,151.7 -704.1,-44.8"
         style="fill:#1b3659;fill-opacity:1;fill-rule:nonzero;stroke:none"
         id="path114" /><path
         d="m 18844.1,12007.3 c -299.4,111.9 -445.9,-2576.9 -486.3,-3683.7 -530.3,-50.8 -1454.5,-0.4 -1684.6,16.9 -108.3,8.1 -357.8,99.2 -465.5,113.2 -110.3,14.4 -210.3,21.9 -264.5,12.5 -19.9,-3.5 -572.6,-228.7 -619.9,-278.1 -58.6,-61.3 -217.2,-215.8 -190.4,-282.6 26.7,-66.9 304.9,186.2 304.9,186.2 l 135.9,76 c -169.2,-164.8 -492,-381.7 -445.5,-460.7 45.4,-77.1 336.5,143.1 544,293.1 -178,-160.2 -399.1,-446.8 -348.1,-491.5 45.7,-40.2 297.2,291.7 566,387.3 99.6,35.4 198.9,-62.7 277.3,-74.5 57.6,-8.7 146.4,-27.3 202.9,-11.3 l 291.1,82.2 c 99.1,-8.9 101.6,-67.3 201.7,-88.6 116.2,-24.6 306.9,-50.6 454.9,-86.6 852.3,-207.6 1136.6,-303.9 1397.5,-303.8 790.4,0.5 836.3,4329.4 128.6,4594"
         style="fill:#f68d82;fill-opacity:1;fill-rule:nonzero;stroke:none"
         id="path116" /><path
         d="m 19412.4,9482.9 c 56,1133.6 47.8,2530.9 -589.8,2769.3 -251.6,94.1 -695.1,-471.5 -615.4,-2792.3 340.4,-28 840.2,-50.6 1205.2,23"
         style="fill:#1b3659;fill-opacity:1;fill-rule:nonzero;stroke:none"
         id="path118" /><path
         d="m 15844.9,9970 h 65 l 977.2,-2393.1 -67.3,10.2 -974.9,2382.9"
         style="fill:#f68480;fill-opacity:1;fill-rule:nonzero;stroke:none"
         id="path120" /><path
         d="m 14388.5,1922.7 c 0,0 88.5,-282.9 -70,-470 -158.6,-187.1 -817.4,-370.7 -903.8,-472.001 -86.5,-101.301 -80,-187.597 -80,-187.597 l 1849,50.699 -20.1,556.499 -85.2,399.9 -689.9,122.5"
         style="fill:#f68d82;fill-opacity:1;fill-rule:nonzero;stroke:none"
         id="path122" /><path
         d="m 14203.4,1359.4 c 0,0 475.1,-191.5 704.6,-78.2 229.5,113.4 222.6,144.9 289,102.6 66.4,-42.3 90.2,-563.999 90.2,-563.999 l -2079.1,-60.899 c -144.7,3.297 -217.9,109.5 -100.3,200.399 80.6,62.399 173.7,104.099 226.7,134.299 162.6,93 868.9,265.8 868.9,265.8"
         style="fill:#375491;fill-opacity:1;fill-rule:nonzero;stroke:none"
         id="path124" /><path
         d="m 14458.5,6915.6 c -142.9,299.7 -467.9,689.9 -1039.8,454.9 -545.4,-224.2 -691.8,-775.1 -519.7,-1339.2 172.1,-564.2 1305,-3880.5 1344.5,-4336.4 l 904.5,-6 c 0,0 -164.4,2625.9 -204.7,3260.6 -38.8,610.7 -237.4,1447.3 -484.8,1966.1"
         style="fill:#43927a;fill-opacity:1;fill-rule:nonzero;stroke:none"
         id="path126" /><path
         d="m 12990.1,9970 h 3023.7 c 80,0 152.1,-48.3 182.4,-122.4 l 931,-2270.7 h 1667 c 46.6,0 84.4,-37.8 84.4,-84.4 0,-46.5 -37.8,-84.3 -84.4,-84.3 h -4744.4 c -130.4,0 -248.7,76.6 -302.1,195.6 l -937.5,2088.3 c -58.6,130.4 36.9,277.9 179.9,277.9"
         style="fill:#f35f52;fill-opacity:1;fill-rule:nonzero;stroke:none"
         id="path128" /><path
         d="m 14618,8647.7 c 20.5,-102 109.4,-170.2 198.8,-152.3 89.3,17.8 145.1,115 124.7,217 -20.4,102 -109.4,170.2 -198.7,152.3 -89.3,-17.8 -145.2,-115 -124.8,-217"
         style="fill:#ffffff;fill-opacity:1;fill-rule:nonzero;stroke:none"
         id="path130" /><path
         d="m 23117.6,13182 c -782,0 -1439,609.7 -1488.7,1402.5 -51.6,824.6 573.6,1535.1 1396.6,1586.9 31.8,2 63.5,2.9 94.9,2.9 781.9,0 1439,-609.6 1488.7,-1402.4 51.6,-824.7 -573.7,-1535.2 -1396.6,-1586.9 -31.8,-2 -63.5,-3 -94.9,-3"
         style="fill:#c4daf2;fill-opacity:1;fill-rule:nonzero;stroke:none"
         id="path132" /><path
         d="m 22063.7,14707.6 v -42.4 h -550.4 v 42.4 h 550.4"
         style="fill:#1e4150;fill-opacity:1;fill-rule:nonzero;stroke:none"
         id="path134" /><path
         d="m 24728.1,14707.6 v -42.4 h -550.4 v 42.4 h 550.4"
         style="fill:#1e4150;fill-opacity:1;fill-rule:nonzero;stroke:none"
         id="path136" /><path
         d="m 23137.8,15724.3 h -42.3 v 551.6 h 42.3 v -551.6"
         style="fill:#1e4150;fill-opacity:1;fill-rule:nonzero;stroke:none"
         id="path138" /><path
         d="m 23137.8,13065.1 h -42.3 v 551.6 h 42.3 v -551.6"
         style="fill:#1e4150;fill-opacity:1;fill-rule:nonzero;stroke:none"
         id="path140" /><path
         d="m 23164.6,14678.2 c 0,-25.3 -20.4,-45.7 -45.6,-45.7 -25.2,0 -45.6,20.4 -45.6,45.7 0,25.2 20.4,45.6 45.6,45.6 25.2,0 45.6,-20.4 45.6,-45.6"
         style="fill:#1e4150;fill-opacity:1;fill-rule:nonzero;stroke:none"
         id="path142" /><path
         d="m 23119,14657.8 c -5.2,0 -10.4,1.9 -14.4,5.9 l -818.7,820.4 c -7.9,8 -7.9,20.9 0,28.9 8,7.9 20.9,7.9 28.8,0 l 818.7,-820.4 c 7.9,-8 7.9,-20.9 0,-28.9 -4,-4 -9.2,-5.9 -14.4,-5.9"
         style="fill:#1e4150;fill-opacity:1;fill-rule:nonzero;stroke:none"
         id="path144" /><path
         d="m 23382.2,13849.1 c -3.4,1.7 -6.1,4.7 -7.4,8.6 l -264.6,801 c -2.6,7.7 1.6,16.1 9.4,18.7 7.8,2.6 16.1,-1.6 18.7,-9.4 l 264.6,-801 c 2.6,-7.8 -1.6,-16.2 -9.4,-18.7 -3.9,-1.3 -7.9,-0.9 -11.3,0.8"
         style="fill:#1e4150;fill-opacity:1;fill-rule:nonzero;stroke:none"
         id="path146" /><path
         d="m 25981.4,11476.9 119.2,194.4 -189.5,76.9 -119.2,-194.4 z m -482.9,-173.4 133.3,216.5 -107,43.4 c -23.4,9.5 -34.7,36.2 -25.2,59.6 9.5,23.4 36.2,34.7 59.6,25.2 l 123.4,-50.1 119.1,194.4 -114.3,46.4 c -23.4,9.5 -34.7,36.1 -25.2,59.6 9.5,23.4 36.2,34.7 59.6,25.2 l 130.7,-53 138.4,222.6 c 11.7,18.9 35.4,26.6 56,18.2 l 20,-8.1 c 26.2,-10.6 36.6,-42.2 21.8,-66.3 l -128.7,-210 189.5,-76.9 138.4,222.6 c 11.7,18.9 35.4,26.6 56,18.3 l 21.8,-8.9 c 26.2,-10.6 36.6,-42.2 21.8,-66.3 l -128.6,-210 107,-43.4 c 23.4,-9.5 34.7,-36.2 25.2,-59.6 -9.5,-23.4 -36.2,-34.7 -59.6,-25.2 l -123.4,50 -117.3,-195.1 114.3,-46.3 c 23.4,-9.5 34.7,-36.2 25.2,-59.6 -9.5,-23.5 -36.2,-34.7 -59.6,-25.2 l -130.7,53 -141.4,-229.6 c -11.7,-19 -35.4,-26.8 -56.1,-18.4 l -23.4,9.5 c -26.2,10.6 -36.6,42.3 -21.7,66.4 l 133.2,216.4 -189.5,76.8 -141.3,-229.5 c -11.7,-19 -35.5,-26.8 -56.2,-18.4 l -23.3,9.4 c -26.2,10.7 -36.6,42.3 -21.8,66.4"
         style="fill:#1b3659;fill-opacity:1;fill-rule:nonzero;stroke:none"
         id="path148" /><path
         d="m 13807.8,17191.2 136.2,307.5 -176.1,286.6 c -20,32.6 6.1,74.1 44.2,70.2 l 334.5,-34.6 218.2,256.1 c 24.8,29.1 72.3,17.1 80.4,-20.3 l 70.5,-328.9 310.9,-128.4 c 35.4,-14.6 38.7,-63.4 5.5,-82.7 l -290.9,-168.7 -26,-335.3 c -3,-38.2 -48.5,-56.4 -77,-30.8 l -250.4,224.6 -326.9,-79 c -37.3,-8.9 -68.6,28.7 -53.1,63.7"
         style="fill:#f47374;fill-opacity:1;fill-rule:nonzero;stroke:none"
         id="path150" /><path
         d="m 23678,17191.5 102.2,230.7 -132.1,215 c -15.1,24.4 4.5,55.5 33.1,52.6 l 251,-25.9 163.6,192 c 18.6,21.9 54.3,12.9 60.3,-15.2 l 52.9,-246.7 233.2,-96.3 c 26.6,-10.9 29,-47.6 4.2,-62 l -218.3,-126.5 -19.5,-251.6 c -2.2,-28.7 -36.3,-42.3 -57.7,-23.1 l -187.8,168.4 -245.3,-59.1 c -27.9,-6.8 -51.5,21.4 -39.8,47.7"
         style="fill:#f3c267;fill-opacity:1;fill-rule:nonzero;stroke:none"
         id="path152" /><path
         d="m 22663.5,10600.8 -16.2,191.1 -166.6,94.9 c -18.9,10.9 -17.3,38.7 2.9,47.2 l 176.7,74.5 38.8,187.8 c 4.5,21.3 31.5,28.4 45.8,11.8 l 125.4,-145 190.6,21 c 21.7,2.5 36.7,-21.1 25.4,-39.8 l -99.2,-164.1 79,-174.8 c 9,-19.9 -8.8,-41.4 -30,-36.5 l -186.8,43.7 -141.8,-129.1 c -16.1,-14.7 -42.1,-4.5 -44,17.3"
         style="fill:#f47374;fill-opacity:1;fill-rule:nonzero;stroke:none"
         id="path154" /><path
         d="m 7376.63,13410.1 74.95,169.1 -96.86,157.7 c -11.03,17.9 3.31,40.7 24.27,38.5 l 184.04,-19 120,140.9 c 13.66,16 39.79,9.4 44.21,-11.2 l 38.8,-180.9 171.02,-70.6 c 19.47,-8 21.27,-34.9 3.05,-45.5 l -160.07,-92.8 -14.29,-184.4 c -1.63,-21.1 -26.64,-31.1 -42.33,-17 l -137.72,123.5 -179.86,-43.4 c -20.48,-4.9 -37.74,15.8 -29.21,35.1"
         style="fill:#f3c267;fill-opacity:1;fill-rule:nonzero;stroke:none"
         id="path156" /><path
         d="m 13177.6,13716.2 74.9,169.1 -96.8,157.6 c -11.1,18 3.3,40.8 24.2,38.7 l 184.1,-19 120,140.8 c 13.6,16 39.8,9.4 44.2,-11.2 l 38.8,-180.9 171,-70.6 c 19.5,-8 21.3,-34.9 3,-45.5 l -160,-92.8 -14.3,-184.5 c -1.6,-21 -26.7,-31 -42.3,-16.9 l -137.8,123.6 -179.8,-43.5 c -20.5,-4.9 -37.8,15.8 -29.2,35.1"
         style="fill:#59c69f;fill-opacity:1;fill-rule:nonzero;stroke:none"
         id="path158" /><path
         d="m 10289.4,16456.5 297,43.1 122.1,-470.2 442,9.4 148.9,-337 170.6,75.4 -199.2,450.7 -418.9,-9 -127,489.2 -446.9,-64.8 11.4,-186.8"
         style="fill:#59c69f;fill-opacity:1;fill-rule:nonzero;stroke:none"
         id="path160" /><path
         d="m 9652.56,8579.9 224.75,198.9 359.99,-326.3 364.4,250.3 309.3,-200.2 101.3,156.6 -413.6,267.7 -345.4,-237.2 -374.48,339.5 -338.2,-299.3 111.94,-150"
         style="fill:#1b3659;fill-opacity:1;fill-rule:nonzero;stroke:none"
         id="path162" /><path
         d="m 6805.96,8579.3 168.62,275.1 -268.21,108.8 -168.62,-275.1 z m -683.44,-245.4 188.61,306.3 -151.46,61.5 c -33.14,13.4 -49.11,51.2 -35.67,84.3 13.44,33.2 51.21,49.1 84.35,35.7 l 174.67,-70.8 168.61,275.1 -161.77,65.6 c -33.14,13.4 -49.11,51.2 -35.68,84.3 13.45,33.2 51.21,49.1 84.36,35.7 l 184.98,-75 195.83,315 c 16.64,26.8 50.13,37.7 79.33,25.8 l 28.24,-11.4 c 37.07,-15.1 51.79,-59.8 30.89,-93.9 l -182.14,-297.2 268.21,-108.8 195.83,315 c 16.64,26.8 50.13,37.7 79.33,25.9 l 30.83,-12.5 c 37.06,-15.1 51.78,-59.8 30.88,-93.9 l -182.14,-297.3 151.46,-61.4 c 33.15,-13.4 49.12,-51.2 35.68,-84.3 -13.44,-33.2 -51.21,-49.1 -84.35,-35.7 l -174.67,70.8 -166.04,-276.1 161.77,-65.6 c 33.15,-13.5 49.12,-51.2 35.68,-84.4 -13.44,-33.1 -51.21,-49.1 -84.35,-35.6 l -184.98,75 -200.03,-324.9 c -16.58,-26.9 -50.18,-37.9 -79.48,-26.1 l -33.03,13.4 c -37.11,15.1 -51.81,59.9 -30.81,94 l 188.61,306.3 -268.21,108.8 -200.02,-324.9 c -16.58,-26.9 -50.18,-37.9 -79.48,-26 l -33.03,13.3 c -37.11,15.1 -51.8,59.9 -30.81,94"
         style="fill:#59c69f;fill-opacity:1;fill-rule:nonzero;stroke:none"
         id="path164" /><path
         d="m 23255.8,4458.4 c -19.1,169.5 -41.9,342.7 -120.6,493.9 -95.6,183.9 -263.5,316.5 -410.3,462.6 -274.2,273 -485.2,609.4 -611.9,975.3 -97.9,283 -146.7,584.5 -281.7,851.7 -82.4,163.2 -194.8,309.1 -288.4,466.1 -221.2,371.1 -341.7,809.6 -641.7,1120.2 -57.7,-376.6 56.4,-776.2 304.1,-1065.2 73.9,-86.1 159.6,-163.8 215.9,-262.4 102.2,-179.1 92.9,-397.5 104.9,-603.4 22.5,-387 131.5,-768.7 316.8,-1108.9 196.9,-361.5 481,-683.4 586.2,-1081.4 78.9,-298.3 55.4,-632.9 223.6,-891.4 18.2,-28 39.1,-56.1 43.5,-89.3 2.5,-18.6 -0.4,-37.5 -3.3,-56 -3.7,-24 -7.5,-48.1 -11.3,-72.1 -38.2,-244.1 -77.8,-554.7 132,-737.4 145.4,-126.7 332.5,-129.5 437,38.7 105.1,169.4 95.8,417.2 88,607.8 -13,317.4 -47,635.7 -82.8,951.2"
         style="fill:#43927a;fill-opacity:1;fill-rule:nonzero;stroke:none"
         id="path166" /><path
         d="m 23633.7,4654.8 c -81.6,282.6 -208.3,551.8 -271.8,839 -61.5,278.6 -62,566.6 -62.2,852 -0.2,312.7 -0.5,625.4 -0.7,938.1 -0.1,194.6 -0.3,390.4 -32.5,582.3 -69.2,413.1 -283.9,795.1 -320.3,1212.3 -15.7,180.5 2.5,362.9 -17.3,542.9 -11.3,102.8 -37.7,207.8 -85.3,299.1 -51.2,98.1 -192.7,93.8 -239.1,-6.7 -104.3,-226 -170.4,-470.2 -128.3,-712.3 25.3,-145.2 88.2,-280.6 135.2,-420.3 209.1,-622 98.1,-1310.6 259.9,-1946.7 48.8,-192 122.6,-380.3 131.2,-578.2 20.6,-473.8 -333.2,-906.5 -300.8,-1379.6 26.6,-387.9 305.5,-708.9 422.5,-1079.6 65.6,-207.5 79.6,-429 149.8,-634.9 54.5,-160.1 181.4,-354.4 378.4,-305.8 187,46.1 130.5,198.7 122.2,344.6 -28.3,493.3 -1.7,971.9 -140.9,1453.8"
         style="fill:#38816a;fill-opacity:1;fill-rule:nonzero;stroke:none"
         id="path168" /><path
         d="m 24061.8,4395.8 c -8.2,146.9 -33,294.5 -12.5,440.2 17.4,123 66.3,238.9 101.3,358 65.5,223.3 81.7,457.7 97.6,689.9 28.9,422.1 57.7,844.2 86.5,1266.3 44.9,656.2 89.9,1314.2 212.6,1960.2 34.1,179.4 72.3,373.8 -8.3,537.6 -17,34.5 -50.5,71.1 -87.1,59.6 -26.1,-8.2 -38.9,-36.9 -48.4,-62.7 -268.2,-728.8 -369.5,-1513.4 -668.9,-2229.9 -71.7,-171.7 -155.1,-340.5 -192.2,-522.8 -44.6,-219 -20.1,-445.1 -14.3,-668.5 8.2,-320.3 -23,-643.1 -111.4,-951 -46.3,-161.1 -108.3,-318.6 -133.6,-484.3 -31.7,-206.7 -5.1,-417.2 14.7,-625.3 38,-400.1 50.9,-802.6 38.6,-1204.3 -7.3,-236.2 192.1,-230 324.1,-84.9 92.4,101.5 91.5,212.9 123.2,339.2 103.8,414.7 303.3,733.1 278.1,1182.7"
         style="fill:#43927a;fill-opacity:1;fill-rule:nonzero;stroke:none"
         id="path170" /><path
         d="m 22816.3,3755.4 c -176.3,283.3 -527.5,444.3 -640.2,758.5 -28.7,79.9 -39.9,165.9 -74.9,243.3 -77.8,171.8 -254.7,268.9 -428.6,347.9 -24.1,11 -51.6,-6.5 -51.9,-33.1 -0.6,-42.2 19.4,-82.5 54.4,-106.1 134,-90.2 235.8,-228 281.1,-383.4 53.7,-184.1 30.4,-385.9 97.2,-565.7 56,-150.9 171.4,-274.3 225.6,-425.9 49.5,-138.5 44.3,-289.9 67.6,-435.3 23.3,-145.3 87.9,-299.6 221.3,-361.1 482.9,-222.5 362.2,777.9 248.4,960.9"
         style="fill:#38816a;fill-opacity:1;fill-rule:nonzero;stroke:none"
         id="path172" /><path
         d="m 24824.7,3848.9 c -7.5,-136.9 13.4,-280.5 -40.2,-406.7 -34.3,-80.8 -95.9,-146 -146.6,-217.6 -177.7,-251.5 -242.2,-607.7 -515.3,-749.2 -18,-9.4 -38.1,-17.8 -58.1,-14 -28,5.2 -46.3,32.2 -57.6,58.4 -66.9,156 8.2,331.7 52.7,495.6 7.8,28.7 14.3,60.6 0.7,87 -15.1,29 -49.4,41.6 -72.8,64.4 -46.6,45.3 -42.2,120.4 -33,185 23.2,161.1 55.7,320.9 97.5,478.3 23.6,89.2 50.9,179.2 102.4,255.8 56.5,84.4 138.8,147.4 215.7,213.6 340.1,292.5 600.6,677.1 746.5,1101.8 31.5,92 59.7,189.1 124.9,261.1 65.2,72 181.4,109 260.8,53.2 56.5,-39.8 -174.9,-412.1 -201.9,-456.7 -77.1,-127.6 -78.1,-238.6 -121.7,-380.2 -106.8,-347.2 -333.6,-657.9 -354,-1029.8"
         style="fill:#43927a;fill-opacity:1;fill-rule:nonzero;stroke:none"
         id="path174" /><path
         d="m 24555.5,3690.6 c 50.5,130.6 101.5,262.9 118.1,402 18.5,154.7 -6,312.8 20.4,466.3 33.9,197.3 149,370.9 205.9,562.8 41.2,138.6 51.3,284.2 76,426.7 70.6,407.4 262.1,805.5 207.2,1215.3 -12,89.1 -52.2,193 -140.7,208.2 -80.1,13.8 -153,-59.5 -173.8,-138.2 -20.8,-78.7 -5.3,-161.7 0.4,-242.9 16,-226.5 -48.6,-457.8 -179.6,-643.1 -125.8,-178.1 -308.4,-312.1 -421.6,-498.4 -138.9,-228.6 -157.8,-507.6 -228.6,-765.6 -141,-513 -494.4,-960.6 -558.9,-1488.8 -25.6,-210.2 23.7,-465.7 217.7,-549.6 561,-242.9 730.4,716.6 857.5,1045.3"
         style="fill:#38816a;fill-opacity:1;fill-rule:nonzero;stroke:none"
         id="path176" /><path
         d="m 23574.7,3039.4 h -1287.5 c -88,0 -153,-82.3 -132.6,-168.2 l 469.3,-1979.098 c 14.6,-61.602 69.5,-105 132.7,-105 h 728.4 89.7 728.5 c 63.1,0 118,43.398 132.6,105 l 469.4,1979.098 c 20.3,85.9 -44.6,168.2 -132.7,168.2 h -1197.8"
         style="fill:#f35f52;fill-opacity:1;fill-rule:nonzero;stroke:none"
         id="path178" /><path
         d="M 10656.9,5032.6 H 4398.43 v 323.2 h 6258.47 v -323.2"
         style="fill:#1e4150;fill-opacity:1;fill-rule:nonzero;stroke:none"
         id="path180" /><path
         d="M 8603.39,3197.9 H 4511.57 v 282.8 h 4091.82 v -282.8"
         style="fill:#1e4150;fill-opacity:1;fill-rule:nonzero;stroke:none"
         id="path182" /><path
         d="M 10042.8,785.602 V 5194.2 H 9778.77 V 785.602 h 264.03"
         style="fill:#1e4150;fill-opacity:1;fill-rule:nonzero;stroke:none"
         id="path184" /><path
         d="M 6309.21,785.602 V 5194.2 H 6045.22 V 785.602 h 263.99"
         style="fill:#1e4150;fill-opacity:1;fill-rule:nonzero;stroke:none"
         id="path186" /><path
         d="M 7901.04,785.602 9323.17,5156.3 9090.06,5232.1 7643.26,785.602 h 257.78"
         style="fill:#1e4150;fill-opacity:1;fill-rule:nonzero;stroke:none"
         id="path188" /><path
         d="M 3900.6,785.602 5116.96,5165.9 4880.76,5231.5 3646.19,785.602 h 254.41"
         style="fill:#1e4150;fill-opacity:1;fill-rule:nonzero;stroke:none"
         id="path190" /><path
         d="m 23212.5,13185 c -822.9,-51.8 -1531.9,574.8 -1583.6,1399.4 -51.6,824.7 573.6,1535.2 1396.6,1587 822.9,51.7 1531.9,-574.9 1583.6,-1399.5 51.6,-824.7 -573.7,-1535.2 -1396.6,-1586.9 z m -93.5,3240.5 c -963,0 -1743.7,-782.3 -1743.7,-1747.3 0,-965 780.7,-1747.3 1743.7,-1747.3 963,0 1743.7,782.3 1743.7,1747.3 0,965 -780.7,1747.3 -1743.7,1747.3"
         style="fill:#1e4150;fill-opacity:1;fill-rule:nonzero;stroke:none"
         id="path192" /><path
         d="M 30737.3,812.602 H 1990.99 v -195 H 30737.3 v 195"
         style="fill:#14293f;fill-opacity:1;fill-rule:nonzero;stroke:none"
         id="path194" /><path
         d="m 16468.9,13277.1 464.9,7.6 c 0,0 -7.8,-176.7 -212.2,-185.9 -249.1,-11.3 -252.7,178.3 -252.7,178.3"
         style="fill:#ffffff;fill-opacity:1;fill-rule:nonzero;stroke:none"
         id="path196" /></g></g></svg>
